<svg id="Layer_1" data-name="Layer 1" xmlns="http://www.w3.org/2000/svg" viewBox="0 0 362.08 362.08"><defs><style>.cls-1{fill:#00a14b;}.cls-2{fill:#fff;}</style></defs><title>ICONS</title><circle class="cls-1" cx="181.04" cy="181.04" r="152.64"/><path class="cls-2" d="M216.34,94.7a8.34,8.34,0,0,0-5.12-2.13H106.63a3,3,0,0,0-3,3V266.51a3,3,0,0,0,3,3H255.45a3,3,0,0,0,3-3V139.81a8.31,8.31,0,0,0-2.12-5.12Zm-2.12,16.51c0-1.65.95-2,2.12-.88l24.35,24.36c1.17,1.16.77,2.12-.88,2.12H217.22a3,3,0,0,1-3-3Zm33.17,144.24a3,3,0,0,1-3,3H117.69a3,3,0,0,1-3-3V106.63a3,3,0,0,1,3-3h82.47a3,3,0,0,1,3,3v38.24a3,3,0,0,0,3,3h38.23a3,3,0,0,1,3,3Z"/><rect class="cls-2" x="125.75" y="147.63" width="66.35" height="11.06" rx="3" ry="3"/><rect class="cls-2" x="125.75" y="175.47" width="110.58" height="11.06" rx="3" ry="3"/><rect class="cls-2" x="125.75" y="203.32" width="110.58" height="11.06" rx="3" ry="3"/><rect class="cls-2" x="125.75" y="231.16" width="110.58" height="11.06" rx="3" ry="3"/><g id="q0FKjk"><path class="cls-2" d="M143.8,138.31l-.24.12v0l.19,0,1.09.18.08,0-.25.14s0,0,0,0l1.16.41-.23.14c.29.21.63.33.92.51l0,0s-.12,0-.13.07.07.07.11.11l.54.41.47.37.5.38.2.15v0l-.15,0-.77-.28-.84-.32a1.28,1.28,0,0,0-.34-.07l.09.16v0l-1-.42,0,0,.11.18,0,0-.94-.52,0,0,.06.25-.83-.59a.23.23,0,0,0,0,.2l.06.17,0,0-1.11-.86c-.1.11,0,.22,0,.35l-.17-.21c-.11-.14-.21-.3-.33-.44a5.11,5.11,0,0,0-.45-.48,7.12,7.12,0,0,0-.64-.58.85.85,0,0,0-.44-.26s0,.07,0,.11c0,.61,0,1.22,0,1.84,0,.16,0,.32,0,.49a2.74,2.74,0,0,0,0,.5c.08.39.07.78.12,1.16a.9.9,0,0,0,.1.42s0,0,0,.05a.15.15,0,0,1-.06.19.14.14,0,0,1-.14,0,.14.14,0,0,1-.1-.15c0-.16,0-.31,0-.47,0-.32-.07-.64-.11-1V141a29.7,29.7,0,0,1-.13-3,1.68,1.68,0,0,0,0-.2,7.49,7.49,0,0,0-2,2l0,0v-.31l-1.11.86h0l.09-.35,0,0-.8.57,0,0,.06-.11a.42.42,0,0,0,0-.12c-.34.14-.65.35-1,.53l.12-.24v0l-1,.41.05-.22-.36.14-.34.12c-.21.08-.42.14-.63.21l-.62.24h-.11c.06-.11.19-.16.27-.24A1.81,1.81,0,0,1,133,141l.31-.25.3-.24.3-.24.33-.24-.22-.09.95-.51-.24-.15,1.17-.41c0-.14-.19-.1-.25-.21l1.33-.24v0l-.23-.13v0l1-.07-.11-.19,2.35-.23s0-.06-.06-.06l-1.55.09-.49.05-1.17.13h-.27l.17-.21a7,7,0,0,0-1.44.26c0-.14.16-.19.17-.32a.12.12,0,0,0-.08,0l-.87.13-.39.07H134l.2-.22,0,0-1.19.19,0,0,.22-.23s.05-.06,0-.07a.13.13,0,0,0-.07,0,.27.27,0,0,0-.09,0l-1.34,0c.06-.15.25-.14.31-.29-.46-.13-.93-.14-1.4-.27.1-.14.29-.16.41-.28a1.09,1.09,0,0,0-.46-.1l-.65-.07-.19-.06.36-.23a4.88,4.88,0,0,0-.62-.09l-.61-.11.3-.17v0a3.27,3.27,0,0,0-.45-.1l-.49-.14.31-.18v0l-1.05-.17.21-.17a.83.83,0,0,0-.18-.07l-1-.2-.77-.19.82-.11.85-.08-.1-.25c.39,0,.75.13,1.16.11l-.18-.24,0,0,1.31.16v-.26c.44.08.85.21,1.3.28l-.08-.33c.41.12.77.33,1.19.45,0-.07,0-.12,0-.17s0-.09,0-.17c.41.19.78.43,1.2.63l0-.32a.58.58,0,0,1,.14.05l.47.32a3.37,3.37,0,0,0,.32.19h.08v-.26a2.28,2.28,0,0,1,.4.35,2.72,2.72,0,0,0,.42.34l.1,0,0-.24,0,0,1,.75,0,0v-.35l1,.89,0,0s0-.07,0-.11a1.3,1.3,0,0,1,0-.15l.16.08.9.53.69.4.94.56a.55.55,0,0,0,.28.12c-.85-.61-1.72-1.18-2.57-1.8l.25,0v0l-.95-.49.25-.11-.6-.28c-.2-.09-.4-.16-.61-.24v0l.15,0s0-.06-.06-.07l-.35-.14-.67-.29.19-.16a.76.76,0,0,0-.09-.09l-.48-.21c-.16-.07-.31-.16-.49-.26l.31-.12-.79-.39.12-.06,0,0-1.09-.62v0h.32v0l-1.15-.67v0l.2,0,0,0-.77-.58.32-.06s0-.07,0-.09l-.61-.46-.26-.22.12,0c.08,0,.1-.06,0-.13l-.18-.19-.51-.52s0,0,0-.07l.23-.08a.73.73,0,0,0-.09-.13l-.64-.65s0,0,0-.06l.39,0c-.19-.3-.44-.51-.63-.81l.15,0h.15s0-.09,0-.11l-.6-.74a.54.54,0,0,1-.06-.11l.33,0c-.18-.36-.45-.63-.63-1l.2-.07c0-.14-.14-.2-.22-.29l-.49-.56.15,0c.11,0,.12,0,.08-.14l-.1-.15-.34-.53-.35-.58-.13-.23s0,0,0-.08l1.64,1.32,0-.26c.33.31.59.65.92,1v-.32c.33.31.61.62,1,.91a1.1,1.1,0,0,0,0-.16.49.49,0,0,0,0-.12h0l.82,1h0l0-.21.73,1h0l0-.25.64,1h0l.07-.24c.11.21.2.4.3.57s.18.36.29.52h0l.05-.41.06,0c.07.14.12.28.18.41l.22.45.09.24.08.1.11-.31h0l.63,1.29c.11-.07.05-.19.12-.28.29.53.53,1.08.81,1.6h0V131h0l.7,1.41h0l0-.2h0c.06.15.12.31.19.46a2.5,2.5,0,0,0,.18.48c.08.15.08.34.22.48l.08-.32a2.86,2.86,0,0,1,.28.69c.09.23.16.47.24.72.12-.07,0-.21.12-.3l.09.22c.09.22.17.45.26.67l.16.39c.07.15.12.31.19.45s.21.35.32.52.22.37.34.55a2.2,2.2,0,0,0,.17.25l0,0-.18-.51-.15-.46c-.08-.27-.17-.54-.26-.82a.57.57,0,0,1,0-.14l-.17-.51.15,0-.57-1.26a.44.44,0,0,0,.13,0,.21.21,0,0,0,0-.11c-.1-.3-.19-.59-.29-.9l.13,0c-.08-.4-.31-.75-.39-1.16h.13s0,0,0,0c0-.18-.11-.35-.17-.53s-.14-.44-.22-.67h.17a2,2,0,0,0-.08-.5,2.63,2.63,0,0,1-.07-.49c0-.16-.12-.31-.08-.49l.2.1,0,0-.3-1.38.19.06c0-.48-.14-.92-.17-1.41l.24,0-.12-1,.21.06-.13-1.19.21.1a11.1,11.1,0,0,0-.13-1.28l.16,0,.17,0-.09-1.23.15.06a2.56,2.56,0,0,0,0-.55c0-.19,0-.37,0-.56.2.06.2.06.23-.13s.05-.43.07-.65a1.21,1.21,0,0,1,.05-.14l.15.07a1.22,1.22,0,0,0,0-.17l0-.39c0-.18.05-.35.07-.53l.15.12.2-1.13.19,0c0-.14,0-.26.05-.38.06-.4.12-.79.19-1.18a.67.67,0,0,1,.09-.26c0,.27.09.54.13.82s.1.63.16,1a.17.17,0,0,0,0,0l.17,0c0,.2.05.38.09.57s.08.35.12.55l.14-.09.13,1.08.17-.07.14,1,.19-.06v1.11l.18,0-.1,1.19c.09.08.19-.08.32,0a3.19,3.19,0,0,1-.08.61c0,.21,0,.42-.05.65l.21-.1-.12,1.2.21-.08-.12,1.05.25-.06a13.59,13.59,0,0,0-.18,1.41l.19-.06-.29,1.37,0,0,.2-.09c-.08.5-.16,1-.26,1.47h.18s0,.09,0,.12c-.07.2-.14.39-.2.58,0,0,0,.09,0,.13s-.07.27-.11.41h.15c-.1.41-.31.76-.42,1.16l.12,0s0,.07,0,.11l-.23.66a.44.44,0,0,0,0,.1c0,.15,0,.15.1.21l-.42,1.12h.15l-.06.22c-.07.17-.14.34-.2.51l-.24.66v0l-.3.87c0,.1-.07.2-.11.3a.45.45,0,0,0,0,.08c.07-.11.14-.19.2-.28l.4-.62.32-.63c.07-.15.15-.3.22-.46l.13-.3.2-.6a2.29,2.29,0,0,1,.11-.23l.06.3h0c.18-.46.31-.94.49-1.4h0a.57.57,0,0,1,0,.14,1.25,1.25,0,0,1,.06.18,1.37,1.37,0,0,0,.15-.37c0-.11.09-.23.14-.34l.13-.33c.05-.11.1-.22.16-.37l.08.18.71-1.43h0l0,.28h0l.78-1.56h0l.06.26h0l.63-1.29c.14.06.06.22.17.3.21-.4.37-.82.57-1.21h0l0,.41h0l.59-1.07.08.26c.24-.31.36-.65.61-.93l.08.16.76-1,0,.23a4.93,4.93,0,0,0,.44-.53c.13-.18.28-.35.44-.54l0,.27,0,0c.31-.27.59-.57.89-.86h0l0,.28c.33-.33.6-.66.91-1l0,.27a3.66,3.66,0,0,0,.42-.34l.42-.33.42-.35a3.41,3.41,0,0,1,.44-.3,4.31,4.31,0,0,1-.26.47c-.1.17-.22.33-.32.5s-.26.42-.39.63c0,.06,0,.09.05.11l.2,0-.75.84.24.09-.66,1,.35,0c-.22.34-.5.61-.72,1l.16,0,.16,0a2.59,2.59,0,0,1-.31.41,3.79,3.79,0,0,0-.31.37c.12.11.27,0,.4.08-.19.19-.36.37-.54.54l-.21.2c-.06.06,0,.1,0,.13l.16,0c-.26.31-.55.57-.81.87l.23.08c-.31.27-.63.48-.92.73l0,0,.29.06c-.24.22-.52.37-.76.6l.24,0s-.05.08-.09.1l-.86.47a1.05,1.05,0,0,0-.21.15l.32,0v0c-.35.23-.73.41-1.1.64l.13.07-.8.4.29.12c-.35.22-.71.35-1.07.54l.22.18-.25.11-.81.32a.5.5,0,0,1-.05.07l.19,0-.12.09-.83.33-.27.14.24.1-.95.5v0l.28,0-.09.09-.57.36c-.16.11-.3.23-.46.33s-.32.22-.49.32l-.45.3-.52.4.09,0,.54-.32.39-.23c.19-.1.36-.21.55-.32l.39-.23.29-.17.62-.37h.06l-.06.25h0l1-.88v.33l0,0c.34-.24.66-.51,1-.78l-.07.34a11.29,11.29,0,0,0,.93-.75v.26l.1,0,.48-.31a4.66,4.66,0,0,1,.4-.25v.32c.42-.18.78-.43,1.2-.62l0,.36.61-.25.59-.23-.08.34c.45-.07.86-.19,1.29-.28V134h.18l.89-.11.29,0-.18.26c.4,0,.76-.11,1.15-.11a1,1,0,0,1-.06.14c0,.08,0,.11.06.12s.42,0,.62.06l.88.1.09,0-.09,0-.24.05-1,.19-.68.18.23.16-.1,0-.87.14h-.07c0,.15.22.09.27.23l-.9.21c0,.08,0,.08.26.21a8,8,0,0,1-1.18.19v0l.35.23-.25.06-.84.09-.24.06.43.27v0l-.12,0-1,.16-.31.09.32.25v0l-.6,0-.75,0h-.09l0,0a.08.08,0,0,0,0,.07l.23.24,0,0-1.2-.19,0,0,.17.2v0l-.69-.1-.7-.09c0,.13.17.17.16.3l-1.46-.28v0l.22.21H144c-.38,0-.76,0-1.14-.1a12,12,0,0,0-1.89-.14c-.11,0-.22,0-.33,0a.18.18,0,0,0-.09,0v0l2.31.22-.12.19,1,.07Z"/></g></svg>