<svg id="Layer_1" data-name="Layer 1" xmlns="http://www.w3.org/2000/svg" viewBox="0 0 362.84 362.84"><defs><style>.cls-1{fill:#00a14b;}.cls-2{fill:#fff;}</style></defs><title>ICONS</title><circle class="cls-1" cx="181.42" cy="181.42" r="152.64"/><path class="cls-2" d="M200.45,205.49c0,11.48-.18,22.95.07,34.42.12,5.66-2.31,9.48-6.84,12.38-5.09,3.26-10.77,4.88-16.63,5.91-12.28,2.15-24.47,1.82-36.36-2.09a45.87,45.87,0,0,1-10.07-5c-3.64-2.31-5.32-5.93-5.32-10.33q.06-28.74,0-57.49c0-3.51,0-7,0-10.52,0-9.07,2.78-13,11.2-16.65,10-4.33,20.56-5.23,31.24-4.51a84.43,84.43,0,0,1,17,2.78c3.92,1.09,7.62,3.37,11,5.67s4.71,5.67,4.67,9.8C200.38,181.74,200.45,193.62,200.45,205.49Zm-36.28-47.63a62.65,62.65,0,0,0-10,.68c-4.12.62-25.14,4.33-21.62,11.57a7.49,7.49,0,0,0,3.07,2.88c9.45,5.68,21,6.85,32,6.14,7.94-.5,16-2,22.76-6.23,1.65-1,3.37-2.59,3.17-4.52a5.09,5.09,0,0,0-2.38-3.31,30.17,30.17,0,0,0-7.93-3.9A60,60,0,0,0,164.17,157.86Zm29.34,21.7c-22.49,8.82-39.4,8.82-60.92,0-.84,2.33.22,4.08,2,5.19a34.81,34.81,0,0,0,7.87,4,68.59,68.59,0,0,0,41,0,33.7,33.7,0,0,0,7.83-4.06A4.43,4.43,0,0,0,193.51,179.56Zm.16,12.5c-20.5,8.9-40.77,8.85-61,.24-.82,2.38.36,3.93,2,4.94a36.78,36.78,0,0,0,7.48,3.85c11.21,3.82,22.69,4.12,34.27,2a36.66,36.66,0,0,0,13.92-5C192.38,196.67,193.94,195,193.67,192.06Zm0,24.19c-20.47,8.79-40.76,8.9-61.07.15-.81,2.5.42,4.18,2.23,5.17a51.21,51.21,0,0,0,9.81,4.54,67.57,67.57,0,0,0,30,1.51c5.32-.86,10.59-2.1,15.2-5.12C192,221.1,194,219.52,193.65,216.25Zm-61,12.46a3.92,3.92,0,0,0,1.76,5.09,38.15,38.15,0,0,0,7.08,3.76c9.95,3.7,20.31,4.12,30.67,2.76a73.57,73.57,0,0,0,15.11-4.06c2.24-.8,4.06-2.91,5.87-4.65.49-.46.22-1.71.3-2.59a9.6,9.6,0,0,0-2.16.52c-12.08,5.8-24.87,6.38-37.9,5.16A57.15,57.15,0,0,1,132.68,228.71Zm0,12.77c.11,2.58.25,3.38,2.62,4.65a50.88,50.88,0,0,0,9.92,4.3,64.43,64.43,0,0,0,28.79,1.4c5.09-.87,10.06-2.77,14.92-4.63,2.38-.92,4.58-2.67,4.79-6C173.13,250,152.88,250,132.65,241.48Zm61.12-37.34c-10.07,5.35-20.32,6.87-30.92,6.88s-20.71-1.62-30.25-6.54c-.65,2.48.74,3.77,2.19,4.62a44.26,44.26,0,0,0,8.26,4.06c9.63,3.25,19.6,3.29,29.55,2.26,5.87-.61,11.66-2,16.83-5.14C191.5,209,193.45,207.66,193.77,204.14Z"/><path class="cls-2" d="M203,224.14c0-5.52.13-11.06,0-16.58-.15-5.09,2.05-8.76,6.12-11.56,5.81-4,12.46-5.72,19.25-6.78a72,72,0,0,1,33.57,2.18,49.65,49.65,0,0,1,10.86,5.18c3.76,2.34,5.48,6,5.43,10.64-.11,10.92-.22,21.85,0,32.77.15,6-2.51,10-7.31,13-6.09,3.76-12.92,5.38-19.88,6.22-10.66,1.28-21.32,1-31.6-2.33a50.65,50.65,0,0,1-11.51-5.66c-3.45-2.21-5-5.79-5-10.05C203,235.47,203,229.81,203,224.14ZM240.38,195c-1.84,0-3.68.11-5.51.29-4.66.45-30.54,4.67-23.82,13.2a11.13,11.13,0,0,0,4.51,3,63.77,63.77,0,0,0,44,2.19,30.9,30.9,0,0,0,9.48-4.56,5.36,5.36,0,0,0,1.95-2.25c1-2.71-2-5.16-4.6-6.37A60.56,60.56,0,0,0,240.38,195Zm30.56,34.34c-20.5,8.64-40.65,8.57-61.17.33.51,1.73,1.06,3.48,2.24,4.42a22.72,22.72,0,0,0,6.27,3.54c12.76,4.68,25.8,5,38.89,1.74a50.68,50.68,0,0,0,10.43-4.13C269.68,234.17,271.72,232.55,270.94,229.32Zm-60.78-12.51a4.2,4.2,0,0,0,2.16,5.14,40.71,40.71,0,0,0,8.67,4.18,67.42,67.42,0,0,0,34.36,1.17c4.38-1,8.58-3,12.71-4.89,2.1-1,3.61-2.8,2.89-5.59C250.64,225.39,230.46,225.4,210.16,216.81Zm.17,24.8-.68.74c.82,1.21,1.4,2.76,2.52,3.57a25.81,25.81,0,0,0,6.66,3.66,67.2,67.2,0,0,0,43.18.06,34.16,34.16,0,0,0,7.06-3.79,3.61,3.61,0,0,0,1.76-4.33c-9.62,5-19.71,6.58-30.17,6.61S219.89,246.48,210.33,241.61Z"/><path class="cls-2" d="M247.92,94.09c-2.2.84-4.4,1.65-6.59,2.52-3.25,1.29-6.46,2.67-9.73,3.94-2.94,1.14-4.9.51-5.69-1.72-.69-1.94.29-3.41,3.31-4.64Q241,89.38,252.8,84.66c7.08-2.83,7.37-2.67,9.36,4.61s3.91,14.27,5.87,21.41a19.23,19.23,0,0,1,.5,1.95c.34,2,.14,3.81-2.22,4.51-2,.58-3.56-.43-4.32-3.07-1.78-6.17-3.44-12.37-5.37-19.37-1.17,1.73-2,2.89-2.76,4.09Q234.48,128.87,215.12,159c-.59.91-1.13,1.84-1.75,2.72-2.11,3-4.11,3.23-6.57.58-5.13-5.54-10.15-11.18-15.22-16.77a23.44,23.44,0,0,1-1.86-2.13c-1-1.38-1.81-1.43-3.28-.44-3,2-6.2,3.78-9.36,5.56-2.85,1.62-4.66,1.47-5.67-.28-1.13-1.94-.33-4.18,2.17-5.67,4.27-2.56,8.61-5,12.87-7.58,2.05-1.24,3.7-1.11,5.35.73,4.6,5.1,9.28,10.12,13.93,15.18.36.4.67.84,1,1.25,2.73,3.11,2.72,3.11,5-.38q17.16-26.69,34.34-53.38c.78-1.2,1.52-2.44,2.27-3.66Z"/><path class="cls-2" d="M59.54,227.62c-1-.82-2.3-1.37-2.69-2.29a4.15,4.15,0,0,1,.32-3.3,11.18,11.18,0,0,1,3-2.59q26.35-19,52.74-38.09c.22-.15.42-.33.65-.48,2.85-2,4.51-1.92,5.92.11,1.28,1.82.83,3.38-1.86,5.33q-27.33,19.77-54.73,39.48A31,31,0,0,1,59.54,227.62Z"/></svg>