<svg id="Layer_1" data-name="Layer 1" xmlns="http://www.w3.org/2000/svg" viewBox="0 0 361.44 346.9"><defs><style>.cls-1{fill:#00a14b;}.cls-2{fill:#fff;}</style></defs><title>ICONS</title><circle class="cls-1" cx="180.72" cy="173.45" r="152.64"/><path class="cls-2" d="M168.43,122.65h24.95a3.49,3.49,0,0,0,0-7H168.43a3.49,3.49,0,0,0,0,7Z"/><path class="cls-2" d="M168.43,112.28h24.95a3.49,3.49,0,0,0,0-7H168.43a3.49,3.49,0,0,0,0,7Z"/><path class="cls-2" d="M168.43,101.9h24.95a3.49,3.49,0,0,0,0-7H168.43a3.49,3.49,0,0,0,0,7Z"/><path class="cls-2" d="M180,223.91a29.63,29.63,0,0,0,3.65-.15,46.57,46.57,0,0,0,21.06-7.36c11.34-7.51,18.78-20.22,18.78-33.93a39.86,39.86,0,0,0-13.66-30c-4.31-3.85-13.05-17.25-13.05-21.91a3.44,3.44,0,0,0-3.49-3.49H168.18a3.44,3.44,0,0,0-3.49,3.49c0,4.54-8.74,18-13.05,21.91a40.21,40.21,0,0,0-13.66,30c0,14.32,8.11,27.3,20.27,34.57C164.67,220.88,172.36,223.76,180,223.91Zm-23.65-66.26c4-3.63,12.6-15.52,14.83-23.55h19.2c2.23,8.17,10.85,20.06,14.8,23.55A32.8,32.8,0,0,1,206.5,206c-6,5.94-14.21,10.19-22.66,10.83-7.49.56-15.53-1.81-21.94-5.61-10.11-6-17.09-16.79-17-28.72A33.09,33.09,0,0,1,156.32,157.65Z"/><path class="cls-2" d="M175.09,91.39h11.2a3.52,3.52,0,0,0,3.49-3v-.57c0-3.86-4-6.77-9.09-6.77s-9.08,2.91-9.08,6.77v.57A3.5,3.5,0,0,0,175.09,91.39Z"/><g id="q0FKjk"><path class="cls-2" d="M104.12,212.55l-.45.22v.07l.36.07,2.08.34.13.07c-.17.1-.32.17-.46.26s0,0,0,.09l2.2.78-.43.27c.55.4,1.18.62,1.74,1l0,.06c-.09,0-.23.06-.25.13s.13.14.21.2l1,.79.89.69.94.73.38.28,0,.05a2.29,2.29,0,0,1-.28-.08l-1.46-.52-1.59-.6a2.21,2.21,0,0,0-.65-.14l.18.31,0,0-1.89-.79,0,0,.2.36,0,.05-1.78-1,0,0,.12.48-1.56-1.12a.43.43,0,0,0,.06.39,3.05,3.05,0,0,1,.13.32l-.06,0-2.11-1.63c-.18.21,0,.42,0,.66-.13-.15-.23-.27-.32-.39-.21-.28-.4-.58-.63-.84a10.4,10.4,0,0,0-.84-.92,15.81,15.81,0,0,0-1.22-1.09,1.63,1.63,0,0,0-.82-.49.75.75,0,0,0,0,.21c0,1.16.06,2.32.06,3.48,0,.31.06.61.06.92a6.11,6.11,0,0,0,.06,1c.15.73.13,1.47.23,2.2a1.66,1.66,0,0,0,.19.78.38.38,0,0,0,0,.1.29.29,0,0,1-.1.37.38.38,0,0,1-.28,0,.29.29,0,0,1-.19-.3c0-.29,0-.59,0-.88-.06-.61-.13-1.22-.2-1.84a.37.37,0,0,1,0-.11,53.28,53.28,0,0,1-.25-5.65,3.19,3.19,0,0,0,0-.37,14.08,14.08,0,0,0-3.74,3.76l0,0v-.58l-2.11,1.62h0l.18-.65-.05,0-1.51,1.08-.06,0a2,2,0,0,0,.1-.21.45.45,0,0,0,.07-.24c-.65.28-1.24.67-1.91,1l.23-.45,0,0-1.85.77.1-.4-.69.25c-.21.08-.42.17-.63.24l-1.19.4-1.19.44a.6.6,0,0,1-.2,0c.11-.22.35-.3.51-.46a5,5,0,0,1,.6-.42l.59-.47.57-.45c.19-.15.37-.31.56-.45l.63-.46-.41-.18,1.8-1-.46-.29,2.22-.77c0-.26-.36-.18-.48-.39l2.53-.45,0-.06-.45-.23v-.06l2-.13-.22-.36,4.46-.43c-.06-.06-.09-.12-.11-.12l-2.94.17-.92.08-2.23.25c-.17,0-.34,0-.51,0l.33-.4a13.83,13.83,0,0,0-2.74.49c0-.27.31-.35.33-.61l-.15,0-1.64.25-.75.13a.79.79,0,0,1-.16,0l.36-.43,0-.07-2.25.35,0-.07.42-.44s.08-.11.07-.12a.28.28,0,0,0-.14-.1h-.16l-2.54-.08c.1-.28.46-.26.58-.55-.86-.25-1.76-.26-2.65-.52.2-.26.55-.3.78-.52a2.24,2.24,0,0,0-.87-.19L77.84,209a2.84,2.84,0,0,1-.37-.11l.7-.44a9.31,9.31,0,0,0-1.18-.17c-.37,0-.75-.13-1.16-.2l.57-.33v-.08a6.28,6.28,0,0,0-.86-.19l-.92-.26.59-.34,0-.05-2-.33.41-.31a1.53,1.53,0,0,0-.34-.14c-.62-.14-1.25-.26-1.87-.39s-1-.21-1.45-.36c.52-.07,1-.15,1.55-.21s1-.09,1.62-.14l-.2-.47c.74,0,1.42.24,2.2.2l-.33-.45,0-.06,2.48.3,0-.49c.82.15,1.6.4,2.45.52l-.15-.61c.78.22,1.46.62,2.25.85,0-.14,0-.23,0-.33s0-.17,0-.31c.79.35,1.48.8,2.28,1.19l0-.61a1,1,0,0,1,.26.09c.3.2.59.42.88.62l.61.35a.35.35,0,0,0,.15,0v-.48a4.1,4.1,0,0,1,.76.66,4.09,4.09,0,0,0,.8.64,1.18,1.18,0,0,0,.19,0l-.1-.44,0,0,1.87,1.41,0,0v-.66l1.91,1.69.06,0a1.8,1.8,0,0,1-.08-.21c0-.08,0-.16,0-.29a3,3,0,0,1,.3.14l1.7,1,1.3.78c.6.35,1.2.69,1.78,1a1.15,1.15,0,0,0,.53.23c-1.59-1.16-3.24-2.24-4.85-3.41l.47,0,0-.06-1.8-.93.47-.2c-.39-.19-.76-.37-1.14-.53s-.76-.31-1.14-.47v0l.28-.09c0-.05-.06-.11-.11-.13l-.67-.28-1.26-.54.35-.3c-.06-.06-.1-.14-.17-.17-.3-.14-.61-.25-.91-.39s-.58-.32-.93-.5l.59-.22-1.48-.75.22-.11,0-.07-2.07-1.18,0-.08h.6l0-.07-2.19-1.27,0-.06.38-.06,0-.06L80.25,198l.59-.11c0-.07,0-.14-.07-.17-.38-.3-.77-.59-1.16-.88l-.49-.4.23-.08c.16-.05.19-.13.08-.26l-.34-.35-1-1s0-.06-.07-.12l.44-.16c-.07-.1-.11-.18-.17-.25L77.11,193l-.09-.12.75-.06c-.37-.57-.85-1-1.2-1.54l.29,0,.27,0a.6.6,0,0,0,0-.21c-.38-.47-.77-.93-1.15-1.39a1.35,1.35,0,0,1-.12-.22l.63-.08c-.34-.67-.84-1.18-1.19-1.82l.38-.13c0-.27-.27-.38-.41-.56-.29-.35-.6-.68-.93-1.06l.28-.05c.2,0,.24-.08.14-.27s-.12-.19-.18-.29l-.64-1c-.23-.36-.44-.73-.66-1.09l-.26-.45s0-.06,0-.14l3.1,2.5.08-.5c.62.6,1.13,1.24,1.74,1.86l0-.6c.62.59,1.15,1.17,1.79,1.72,0-.15,0-.22,0-.3s0-.15,0-.23h.07l1.56,2,.06,0,.06-.39,1.38,1.82H83l0-.47,1.22,1.93.06,0,.13-.45c.21.39.37.75.57,1.07s.33.68.55,1l.08,0,.08-.77c.06,0,.11,0,.12.07.12.25.23.51.34.76s.28.57.41.85.11.31.18.46a.68.68,0,0,0,.14.18l.21-.57h.07l1.19,2.45c.2-.13.09-.36.23-.53.54,1,1,2,1.53,3l.07,0v-.52l.06,0,1.32,2.68h0l0-.38h.07l.36.88a5.18,5.18,0,0,0,.34.91c.17.28.15.63.42.91L93,203a6.28,6.28,0,0,1,.53,1.32c.17.44.3.89.46,1.36.22-.14.07-.39.22-.56l.17.41c.16.42.32.84.49,1.26.1.25.2.5.31.75s.22.58.36.85.39.66.6,1,.42.7.64,1c.1.16.21.31.32.47l.06,0-.34-1c-.09-.29-.18-.58-.28-.88-.17-.51-.33-1-.5-1.54a2.68,2.68,0,0,1-.07-.27c-.11-.32-.21-.63-.32-1l.28,0-1.08-2.4c.11,0,.2,0,.24-.09a.3.3,0,0,0,0-.21l-.55-1.7.25-.06c-.15-.76-.58-1.42-.73-2.19h.24l0-.07c-.11-.34-.23-.66-.33-1s-.27-.83-.42-1.28h.32a3.3,3.3,0,0,0-.15-.94,4.64,4.64,0,0,1-.13-.92c0-.31-.23-.59-.15-.93l.37.18.06,0-.56-2.6.36.1c0-.9-.27-1.74-.33-2.65l.45.09-.22-2,.39.13-.24-2.26.41.2c0-.83-.19-1.6-.26-2.43l.31.07.31.07L94.36,181l.29.11a6.14,6.14,0,0,0,0-1c0-.35,0-.69,0-1,.39.1.39.1.44-.26s.09-.81.14-1.22c0-.09.06-.18.09-.28l.28.15c0-.13,0-.23.06-.33,0-.25,0-.5.06-.74s.09-.66.13-1l.28.22.39-2.13.35.07c0-.26.06-.49.1-.72.12-.75.23-1.49.36-2.24a1.65,1.65,0,0,1,.16-.49c.09.52.17,1,.26,1.55s.19,1.2.29,1.8a.54.54,0,0,0,0,.11l.32-.09c.06.36.1.71.16,1.06s.15.67.24,1.05l.26-.18.25,2,.31-.13.26,1.87.37-.12,0,2.11.33-.11-.18,2.26c.17.16.36-.14.59-.05a5.83,5.83,0,0,1-.14,1.16c0,.39-.06.78-.1,1.23l.4-.2-.23,2.27.4-.15-.23,2,.47-.11c-.09.9-.33,1.76-.34,2.66l.36-.11-.55,2.59.06,0,.39-.18c-.15.94-.31,1.86-.5,2.79h.34a1.32,1.32,0,0,1,0,.23c-.12.37-.25.73-.37,1.1l-.06.24-.22.78H101c-.18.76-.59,1.44-.78,2.2l.21,0a.78.78,0,0,1,0,.22l-.42,1.26a1.21,1.21,0,0,0,0,.18c-.07.27-.07.27.2.4l-.8,2.11.28,0a3.19,3.19,0,0,1-.12.4l-.37,1c-.16.41-.31.83-.46,1.24v0l-.56,1.64-.21.58s0,.07,0,.15c.14-.2.26-.36.37-.53.25-.39.52-.78.76-1.18s.41-.78.6-1.18.29-.58.42-.87a5.89,5.89,0,0,0,.24-.58c.14-.37.26-.75.4-1.13,0-.13.11-.26.2-.44l.11.58h.07c.35-.87.6-1.77.94-2.64h.06c0,.09,0,.18.08.27l.11.34a2.28,2.28,0,0,0,.28-.69c.08-.21.17-.43.26-.65s.17-.42.26-.63.17-.42.28-.69l.17.34,1.34-2.71.06,0,0,.52h0l1.48-3h.06l.11.49h.08l1.19-2.44c.26.1.11.41.32.57.4-.76.69-1.56,1.08-2.3h.06l.11.78h.08l1.11-2,.14.48c.46-.58.7-1.23,1.18-1.76l.14.31,1.43-1.87.06.44a7.62,7.62,0,0,0,.84-1c.25-.33.53-.65.83-1l0,.52.06,0c.59-.51,1.13-1.08,1.69-1.63l.06,0,0,.52c.62-.62,1.14-1.24,1.74-1.89l.08.51a6.35,6.35,0,0,0,.8-.63c.26-.22.53-.43.8-.64s.52-.44.79-.65a8.11,8.11,0,0,1,.83-.57c-.16.29-.31.6-.49.89s-.42.62-.62.94-.48.8-.73,1.2c-.07.12,0,.17.09.2l.38,0-1.42,1.6.45.17-1.24,1.81.67.08c-.43.63-1,1.15-1.37,1.8l.31.05.3,0a4.37,4.37,0,0,1-.6.77c-.2.22-.38.46-.58.7.23.22.52,0,.75.15l-1,1-.39.36c-.13.12-.1.2.06.25l.31.09c-.5.58-1,1.07-1.54,1.64l.43.15c-.57.51-1.18.91-1.73,1.38l0,.07.56.12c-.47.42-1,.71-1.45,1.14l.46.07a.58.58,0,0,1-.16.18l-1.64.9c-.12.07-.23.16-.4.28l.61,0,0,.07c-.67.43-1.38.77-2.09,1.21l.24.14-1.5.75.55.23c-.67.41-1.35.66-2,1l.41.35-.47.2-1.53.62s-.05.06-.1.12l.35.08a1.19,1.19,0,0,1-.22.16l-1.57.63c-.17.07-.33.17-.52.27l.47.19-1.8.94v.06l.52,0a.91.91,0,0,1-.18.17l-1.07.68c-.29.2-.57.43-.87.63s-.61.4-.92.61-.57.37-.85.57a10,10,0,0,0-1,.75,1,1,0,0,0,.18-.05l1-.6.74-.43,1-.61.75-.43.54-.32,1.18-.71h.12l-.12.46.06,0,1.91-1.68v.64l0,0c.65-.46,1.26-1,2-1.48l-.13.63a18.39,18.39,0,0,0,1.75-1.42v.5a.78.78,0,0,0,.19,0l.9-.59c.24-.16.49-.3.78-.48v.61c.79-.34,1.47-.81,2.27-1.16l-.1.68,1.15-.48,1.11-.43-.14.64c.85-.14,1.63-.36,2.44-.53v.46c.13,0,.23,0,.33,0l1.69-.22.56,0-.34.5c.75,0,1.43-.2,2.18-.21,0,.11-.08.19-.12.26s-.06.22.12.23l1.18.11,1.65.2a.85.85,0,0,1,.18.05l-.18.07-.45.08-1.82.37c-.41.09-.81.21-1.28.33l.43.31-.2.06-1.64.25-.14,0c.08.27.43.16.52.42l-1.71.41c0,.14,0,.14.5.4a15.78,15.78,0,0,1-2.24.35l0,.07.67.42c-.19,0-.34.09-.48.11l-1.58.17c-.14,0-.28.08-.47.13l.83.5,0,.05-.23.05-1.85.31a5.82,5.82,0,0,0-.6.17l.62.46,0,.06-1.13,0-1.42,0h-.17a.2.2,0,0,0-.1.08.18.18,0,0,0,.06.13c.14.16.29.3.43.45l0,.07-2.28-.35,0,.07.32.39,0,.05-1.3-.19-1.33-.18c0,.26.32.32.3.57l-2.77-.52,0,.06.42.39a.85.85,0,0,1-.22,0c-.72-.05-1.45-.06-2.15-.18a23,23,0,0,0-3.6-.27c-.21,0-.41-.05-.62-.07a.43.43,0,0,0-.16.07l0,.06,4.36.42-.23.36,2,.13Z"/></g><g id="q0FKjk-2" data-name="q0FKjk"><path class="cls-2" d="M270.45,213.94l-.46.22v.08l.36.06,2.08.35a.45.45,0,0,1,.13.06l-.46.26s0,.05,0,.1l2.2.78-.43.26c.55.41,1.18.63,1.74,1,0,0,0,.06,0,.06s-.23.07-.25.13.13.14.21.2l1,.79.89.69.94.73.38.28,0,0-.28-.07-1.46-.52-1.59-.61a2.21,2.21,0,0,0-.65-.13l.18.3,0,.05-1.89-.79,0,0,.21.35-.05.05-1.78-1,0,0,.12.47-1.56-1.11c-.07.17,0,.27.06.39s.09.21.13.31l-.06.05-2.1-1.64c-.19.21,0,.42,0,.67a4.65,4.65,0,0,1-.32-.4c-.21-.28-.4-.57-.63-.84a10.29,10.29,0,0,0-.84-.91,15.93,15.93,0,0,0-1.22-1.1,1.63,1.63,0,0,0-.82-.49,1.49,1.49,0,0,0,0,.21c0,1.16.06,2.32.06,3.48,0,.31.06.62.06.93a6,6,0,0,0,.06.95c.15.73.13,1.47.23,2.2a1.67,1.67,0,0,0,.19.79s0,.07,0,.1a.28.28,0,0,1-.1.36.32.32,0,0,1-.27,0,.29.29,0,0,1-.2-.3c0-.29,0-.58,0-.87-.06-.62-.14-1.23-.21-1.84a.45.45,0,0,1,0-.11,53.47,53.47,0,0,1-.25-5.66,3.19,3.19,0,0,0-.05-.37,14.37,14.37,0,0,0-3.74,3.76l0,0v-.59l-2.11,1.63-.05,0,.18-.65-.05,0-1.51,1.08-.06,0,.1-.22a.45.45,0,0,0,.07-.23c-.65.27-1.24.67-1.91,1l.23-.45,0-.05-1.86.77.1-.4-.69.26-.63.24c-.4.13-.8.25-1.19.39l-1.19.44a.33.33,0,0,1-.2,0c.11-.22.35-.3.51-.46s.4-.27.6-.42l.6-.46.56-.46.56-.45.63-.46-.41-.18,1.8-1-.46-.29,2.22-.78c0-.26-.36-.18-.48-.39l2.53-.45,0,0-.44-.23v-.06l1.95-.14-.22-.36,4.46-.43c-.06-.06-.09-.12-.11-.11l-2.94.16c-.31,0-.61.06-.92.09l-2.23.24-.51,0L257,213a14.6,14.6,0,0,0-2.74.49c0-.26.32-.35.33-.6a.44.44,0,0,0-.15,0l-1.64.24-.75.14h-.16l.36-.43,0-.06-2.25.35,0-.07.42-.45s.08-.1.07-.12a.23.23,0,0,0-.14-.09.43.43,0,0,0-.16,0l-2.54-.07c.11-.28.46-.27.58-.55-.86-.26-1.76-.27-2.65-.52.2-.26.55-.3.78-.52a2.08,2.08,0,0,0-.87-.2c-.41-.05-.82-.07-1.23-.12a3.09,3.09,0,0,1-.37-.12l.7-.43a6.71,6.71,0,0,0-1.18-.17l-1.16-.21.57-.33V209a8.23,8.23,0,0,0-.86-.19l-.92-.26.59-.34,0-.05-2-.33.41-.31a1.53,1.53,0,0,0-.34-.14l-1.87-.38c-.48-.11-1-.22-1.45-.36.52-.07,1-.15,1.55-.21s1-.1,1.62-.15l-.2-.46c.74,0,1.42.23,2.2.19l-.33-.44,0-.07,2.48.31,0-.5c.82.15,1.6.41,2.45.53l-.15-.62c.78.22,1.46.62,2.25.86,0-.14,0-.24,0-.33a2.13,2.13,0,0,1,0-.32c.78.36,1.47.81,2.27,1.19l-.05-.6a.72.72,0,0,1,.26.08l.89.62c.19.13.4.24.6.35a.61.61,0,0,0,.15,0v-.48a3.72,3.72,0,0,1,.76.65,4.15,4.15,0,0,0,.81.64s.09,0,.18.05l-.1-.45,0,0,1.87,1.41.05,0v-.65l1.91,1.69.06,0c0-.07-.06-.14-.08-.21a2.35,2.35,0,0,1-.05-.29l.3.15,1.7,1,1.3.77c.6.35,1.2.69,1.79,1.05a1.08,1.08,0,0,0,.52.24c-1.59-1.16-3.24-2.24-4.85-3.42l.47,0,0-.07-1.8-.93.47-.2c-.39-.18-.76-.37-1.14-.53l-1.14-.46v-.06l.28-.08c0-.05-.06-.12-.1-.14l-.68-.27-1.26-.55.35-.3c-.06-.06-.1-.13-.16-.16-.31-.14-.62-.26-.91-.4s-.59-.31-.94-.5l.59-.22-1.48-.74.22-.12-.05-.07-2.07-1.18,0-.08h.6l0-.07-2.19-1.27,0-.06.39-.06,0-.05-1.44-1.09.59-.12c0-.07,0-.14-.07-.17l-1.16-.88-.49-.4.23-.08c.16,0,.19-.12.08-.25s-.23-.24-.34-.36l-1-1a.37.37,0,0,1-.07-.13l.44-.16a1.66,1.66,0,0,0-.17-.24l-1.22-1.23-.09-.13.75-.06c-.37-.57-.84-1-1.2-1.53l.29-.06.27,0a.6.6,0,0,0,0-.21c-.38-.46-.77-.92-1.15-1.39,0-.05-.06-.12-.12-.22l.63-.07c-.34-.67-.84-1.19-1.19-1.82l.38-.14c0-.27-.27-.38-.41-.55-.29-.35-.6-.69-.93-1.06l.28-.06c.2,0,.24-.08.14-.27s-.12-.19-.18-.29c-.22-.33-.43-.66-.64-1l-.66-1.09-.26-.44s0-.07,0-.15l3.1,2.51.08-.51c.62.6,1.13,1.24,1.74,1.86l0-.59c.62.58,1.15,1.17,1.79,1.71,0-.14,0-.22,0-.3a1.64,1.64,0,0,1,0-.22l.06,0,1.56,2h.06l.06-.4,1.39,1.83h.06l0-.48,1.21,1.93h.06l.14-.45c.2.39.36.74.56,1.07s.33.68.55,1l.08,0,.09-.78c.05,0,.1,0,.12.07l.33.77c.14.28.28.56.41.85s.11.31.18.46a1.5,1.5,0,0,0,.14.18l.21-.57h.07l1.19,2.45c.2-.14.09-.36.23-.54.54,1,1,2,1.53,3l.07,0v-.53l.06,0,1.32,2.68h0l.05-.38h.06l.36.88a5.85,5.85,0,0,0,.34.91c.17.27.15.63.42.9l.16-.61a5.88,5.88,0,0,1,.53,1.32c.17.43.3.89.46,1.35.22-.13.07-.39.22-.56l.17.41c.16.42.32.85.49,1.27.1.25.2.5.31.75s.22.57.36.85.4.66.6,1,.42.7.64,1c.1.16.21.32.32.47l.06,0c-.11-.32-.23-.64-.34-1s-.18-.58-.28-.87l-.5-1.55c0-.09-.05-.18-.07-.26-.1-.32-.21-.64-.32-1l.28-.05-1.08-2.39c.11,0,.2-.05.24-.1a.27.27,0,0,0,0-.2c-.17-.57-.36-1.13-.54-1.71l.24-.06c-.15-.75-.58-1.41-.73-2.19l.24,0s0-.06,0-.08l-.33-1c-.14-.42-.27-.84-.42-1.29h.32a3.18,3.18,0,0,0-.15-.93,4.74,4.74,0,0,1-.13-.92c0-.31-.22-.59-.15-.93l.37.18.06,0-.56-2.6.36.11c0-.9-.27-1.75-.33-2.66l.46.09-.23-2,.39.13-.24-2.26.41.19c0-.83-.19-1.6-.26-2.43l.31.07.31.08-.17-2.33.29.11a5.22,5.22,0,0,0,0-1c0-.34,0-.69,0-1.05.39.11.39.11.44-.25s.09-.82.14-1.23c0-.09.06-.17.09-.27l.28.14c0-.13,0-.23.06-.33s0-.49.06-.74.09-.66.13-1l.28.22.39-2.12.35.06c0-.25.07-.48.1-.72.12-.74.23-1.49.36-2.23a1.62,1.62,0,0,1,.16-.5c.09.52.17,1,.26,1.55s.19,1.21.29,1.81l0,.1.32-.09c.06.37.1.72.16,1.06s.15.68.24,1.06l.26-.18.25,2,.31-.13.27,1.86.36-.11,0,2.1.33-.1-.18,2.26c.17.15.36-.15.59-.06a5.74,5.74,0,0,1-.14,1.16c0,.39-.06.78-.1,1.23l.4-.2-.23,2.28.41-.16-.24,2,.47-.12c-.09.9-.33,1.76-.34,2.66l.36-.11-.55,2.6.06.05.39-.19c-.15.95-.31,1.86-.5,2.8h.34a1.19,1.19,0,0,1-.05.22c-.12.37-.24.74-.37,1.1l-.06.24c-.07.25-.14.51-.22.78h.28c-.18.77-.59,1.44-.78,2.2l.21,0a1.33,1.33,0,0,1,0,.21c-.15.42-.29.84-.43,1.26a1.05,1.05,0,0,0,0,.19c-.06.27-.06.27.2.39l-.8,2.12.28,0a4,4,0,0,1-.12.41c-.12.33-.25.65-.37,1s-.31.83-.46,1.25v0l-.56,1.65-.21.58s0,.06,0,.14c.14-.2.26-.36.37-.53.26-.39.52-.77.76-1.18s.41-.78.6-1.18.29-.58.42-.87.18-.38.25-.57c.13-.38.25-.76.39-1.13.05-.14.12-.26.2-.45l.11.58h.07c.35-.87.6-1.78.94-2.65h.06c0,.09.05.18.08.27l.11.33a2.23,2.23,0,0,0,.28-.68c.09-.22.17-.44.26-.65s.17-.42.26-.63.17-.43.29-.69l.16.33,1.34-2.7.06,0,0,.52h.05l1.48-3h.06l.11.5H273l1.19-2.45c.26.11.11.42.33.57.39-.75.68-1.55,1.07-2.3h.06l.11.77h.08l1.11-2,.14.48c.46-.57.7-1.23,1.18-1.76l.14.32,1.43-1.87.06.44a8.32,8.32,0,0,0,.84-1c.25-.34.53-.65.84-1l0,.51.06,0c.59-.51,1.13-1.09,1.69-1.63l.06,0,0,.52c.62-.62,1.14-1.25,1.74-1.89l.08.51a7.47,7.47,0,0,0,.8-.64c.26-.22.53-.42.8-.64l.79-.64a7.73,7.73,0,0,1,.83-.58c-.16.3-.31.6-.49.89s-.42.62-.62.94-.48.8-.73,1.2c-.07.12,0,.18.09.2s.21,0,.38.06l-1.41,1.59.44.17L285,190.73l.67.08c-.43.64-.95,1.15-1.37,1.81l.31,0,.3.06a4.68,4.68,0,0,1-.6.76c-.2.23-.38.47-.58.7.23.22.52,0,.76.15l-1,1c-.12.13-.26.24-.39.37s-.1.2.06.24l.31.09c-.5.58-1,1.07-1.54,1.64l.43.15c-.57.52-1.18.92-1.73,1.38l0,.08.56.12c-.47.42-1,.7-1.45,1.13l.46.07a.8.8,0,0,1-.16.19l-1.64.89a4.18,4.18,0,0,0-.4.29l.61,0,0,.07c-.67.43-1.38.78-2.09,1.22l.25.14-1.51.75.55.22c-.66.41-1.35.66-2,1l.41.34-.47.21-1.53.61s-.05.07-.1.12l.35.08a1.19,1.19,0,0,1-.22.16l-1.56.63c-.18.08-.34.18-.52.27l.46.2-1.8.93v.06l.52,0a1,1,0,0,1-.18.18c-.35.23-.71.44-1.06.68s-.58.42-.88.63l-.92.6-.85.57a11.85,11.85,0,0,0-1,.75.53.53,0,0,0,.18,0l1-.61.75-.43,1-.61.75-.43.54-.32,1.18-.7s.05,0,.12,0l-.12.46.07,0,1.9-1.67v.63l.06,0c.64-.46,1.25-1,2-1.47l-.13.62a18.29,18.29,0,0,0,1.75-1.41v.49a.45.45,0,0,0,.19,0l.9-.59.78-.47v.61c.79-.35,1.47-.81,2.27-1.17l-.1.68,1.15-.47,1.12-.44-.15.65c.85-.14,1.63-.36,2.44-.54v.47a1.87,1.87,0,0,0,.34,0l1.68-.21.56,0-.34.49c.75,0,1.43-.2,2.18-.2-.05.1-.08.18-.12.25s-.06.22.12.24l1.18.1,1.65.2a.85.85,0,0,1,.18,0l-.17.07-.46.08-1.82.37c-.41.09-.81.21-1.28.33l.43.31-.2.06-1.64.26-.14,0c.08.27.44.16.52.42L285,209c0,.14,0,.14.5.39a17.4,17.4,0,0,1-2.24.36l0,.06.67.42a2.89,2.89,0,0,1-.48.11c-.53.07-1.06.11-1.58.18a3,3,0,0,0-.47.12l.83.5,0,.06-.23,0-1.85.31a5.82,5.82,0,0,0-.6.17l.62.47,0,.06-1.14,0-1.42,0a.49.49,0,0,0-.17,0s-.09,0-.09.07a.2.2,0,0,0,.05.14l.43.45,0,.06-2.28-.34,0,.06.33.39,0,.06-1.3-.2-1.33-.17c0,.25.32.32.3.57l-2.77-.52,0,.05.42.39-.22,0c-.72-.06-1.45-.07-2.15-.19a25.66,25.66,0,0,0-3.6-.27c-.21,0-.41,0-.62-.06-.05,0-.1,0-.16.06l0,.07,4.36.41-.23.36,2,.13Z"/></g><g id="q0FKjk-3" data-name="q0FKjk"><path class="cls-2" d="M187.28,277.59l-.45.22v.07l.36.07,2.08.34.13.07c-.17.09-.32.17-.46.26s0,.05,0,.09l2.2.78-.43.26c.55.41,1.18.63,1.74,1l-.05.06c-.09,0-.23.06-.25.12s.13.14.21.21l1,.79.89.69.94.73c.13.09.26.18.38.28l0,.05-.28-.08-1.46-.52-1.59-.6a2.21,2.21,0,0,0-.65-.14l.18.31,0,0-1.89-.79,0,.05.2.35,0,.06-1.78-1,0,0,.12.48-1.56-1.12a.43.43,0,0,0,.06.39,3.05,3.05,0,0,1,.13.32l-.06,0-2.11-1.63c-.18.21,0,.42,0,.66-.13-.15-.23-.27-.32-.39-.21-.28-.4-.58-.63-.84a10.4,10.4,0,0,0-.84-.92,15.81,15.81,0,0,0-1.22-1.09,1.63,1.63,0,0,0-.82-.49,1.5,1.5,0,0,0,0,.2c0,1.16.06,2.32.06,3.49,0,.31.06.61.06.92a6.11,6.11,0,0,0,.06,1c.15.73.13,1.47.23,2.2a1.66,1.66,0,0,0,.19.78.38.38,0,0,1,0,.1.29.29,0,0,1-.1.37.38.38,0,0,1-.28,0,.29.29,0,0,1-.19-.3c0-.29,0-.59,0-.88-.06-.61-.14-1.22-.21-1.84a.37.37,0,0,1,0-.11,53.28,53.28,0,0,1-.25-5.65,3.19,3.19,0,0,0,0-.37,14.08,14.08,0,0,0-3.74,3.76l-.05,0v-.58l-2.11,1.62h-.05l.18-.66-.05,0L173,281.87l-.06,0a2,2,0,0,0,.1-.21.45.45,0,0,0,.07-.24c-.65.28-1.24.67-1.91,1l.23-.45,0-.05-1.85.78.1-.41-.69.26-.63.24-1.19.4-1.19.44a.6.6,0,0,1-.2,0c.11-.22.35-.31.51-.46a5,5,0,0,1,.6-.42l.59-.47.57-.45.56-.46.63-.45-.41-.18,1.8-1-.46-.29,2.22-.77c0-.26-.36-.18-.48-.39l2.53-.45,0-.06-.45-.23v-.06l2-.14-.22-.35,4.46-.43c-.06-.06-.09-.12-.11-.12l-2.94.17-.92.08L174,277l-.51,0,.33-.41a14.68,14.68,0,0,0-2.74.5c0-.27.32-.35.33-.61l-.15,0-1.64.25-.75.13a.49.49,0,0,1-.16,0l.36-.42,0-.07-2.25.35,0-.07.42-.44s.08-.11.07-.12a.24.24,0,0,0-.14-.1.43.43,0,0,0-.16,0l-2.54-.08c.1-.28.46-.26.58-.55-.86-.25-1.76-.26-2.65-.52.2-.26.55-.3.78-.52a2.07,2.07,0,0,0-.87-.19L161,274a2.84,2.84,0,0,1-.37-.11l.7-.44a9.31,9.31,0,0,0-1.18-.17l-1.16-.21.57-.32v-.08a6.28,6.28,0,0,0-.86-.19l-.92-.26.59-.34,0-.05-2-.33.41-.32a2.11,2.11,0,0,0-.34-.13c-.62-.14-1.25-.26-1.87-.39s-1-.21-1.45-.36c.52-.07,1-.15,1.55-.21s1-.09,1.62-.15l-.2-.46c.74,0,1.42.24,2.2.2l-.33-.45,0-.06,2.48.3,0-.49c.82.15,1.6.4,2.45.52l-.15-.61c.78.21,1.46.62,2.25.85,0-.14,0-.23,0-.33a1.82,1.82,0,0,1,0-.31c.78.35,1.47.8,2.27,1.18l-.05-.6a1,1,0,0,1,.26.09c.3.2.59.42.89.61s.4.24.6.36a.35.35,0,0,0,.15,0v-.48a3.47,3.47,0,0,1,.76.66,4.41,4.41,0,0,0,.8.64,1.18,1.18,0,0,0,.19,0l-.1-.45,0,0,1.87,1.42.05,0v-.66l1.91,1.69.06,0a1.19,1.19,0,0,1-.08-.2c0-.08,0-.16,0-.3.13.07.22.1.3.15l1.7,1,1.3.77c.6.35,1.2.7,1.78,1.06a1.15,1.15,0,0,0,.53.23c-1.59-1.16-3.24-2.24-4.85-3.41l.47,0,0-.06-1.8-.93.47-.21c-.39-.18-.76-.36-1.14-.52s-.76-.31-1.14-.47v-.05l.28-.09c0-.05-.06-.11-.1-.13l-.68-.28-1.26-.54.35-.31c-.06-.06-.1-.13-.16-.16-.31-.14-.62-.25-.91-.39l-.94-.5.59-.22-1.48-.75.22-.11L168,267,166,265.77l0-.08h.6l0-.07-2.19-1.27,0-.06.39-.06,0-.06-1.44-1.09L164,263c0-.07,0-.14-.07-.17-.38-.3-.77-.59-1.16-.88l-.49-.4.23-.08c.16-.06.19-.13.08-.26l-.34-.35-1-1s0-.06-.07-.12l.44-.16c-.07-.1-.11-.18-.17-.25l-1.22-1.23-.09-.12.75-.06c-.37-.58-.85-1-1.2-1.54l.29-.05.27,0a.59.59,0,0,0,0-.2c-.38-.47-.77-.93-1.15-1.39,0-.06-.07-.13-.12-.22l.63-.08c-.34-.67-.84-1.18-1.19-1.82l.38-.13c0-.27-.27-.38-.41-.56-.29-.35-.6-.68-.93-1.06l.28-.05c.2,0,.24-.09.14-.27a2.82,2.82,0,0,0-.18-.29l-.64-1-.66-1.08-.26-.45a.17.17,0,0,1,0-.14l3.1,2.5.08-.5c.62.6,1.13,1.23,1.74,1.86l0-.6c.62.59,1.15,1.17,1.79,1.72,0-.15,0-.23,0-.3s0-.15,0-.23H163l1.56,1.95h.06l.06-.39,1.38,1.82h.07l0-.47,1.22,1.93.06,0,.13-.45c.21.39.37.74.57,1.07s.33.68.55,1l.08,0,.09-.77c.05,0,.1,0,.11.07.12.25.23.51.34.76s.28.57.41.85.11.31.18.46a1,1,0,0,0,.14.18l.21-.57h.07l1.19,2.45c.2-.13.09-.36.23-.54.54,1,1,2,1.53,3l.07,0v-.52l.06,0,1.32,2.67h0l0-.38h.07l.36.88a5.5,5.5,0,0,0,.34.91c.17.28.15.63.42.91l.16-.62a6.07,6.07,0,0,1,.53,1.32c.17.44.3.89.46,1.36.22-.14.07-.4.22-.56.06.14.12.27.17.41.16.42.32.84.49,1.26.1.25.2.5.31.75s.22.58.36.85.39.66.6,1l.64,1c.1.16.21.31.32.47l.06,0c-.11-.33-.23-.65-.34-1s-.18-.59-.28-.88c-.17-.51-.33-1-.5-1.55a2,2,0,0,1-.07-.26c-.1-.32-.21-.63-.32-1l.28-.05-1.08-2.4c.11,0,.2,0,.24-.09a.3.3,0,0,0,0-.21l-.55-1.7.25-.06c-.15-.76-.58-1.42-.73-2.19h.24s0-.06,0-.07c-.11-.34-.23-.67-.33-1s-.27-.84-.42-1.28h.32a3.3,3.3,0,0,0-.15-.94,4.74,4.74,0,0,1-.13-.92c0-.31-.23-.59-.15-.93l.37.18.06,0-.56-2.6.36.1c0-.9-.27-1.74-.33-2.66l.46.1-.23-2,.39.13-.24-2.26.41.2c0-.83-.19-1.6-.26-2.43l.31.07.31.07-.17-2.32.29.11a6.14,6.14,0,0,0,.05-1c0-.35,0-.69,0-1.05.39.1.39.1.44-.26s.09-.81.14-1.22c0-.09.06-.18.09-.28l.28.15c0-.13.05-.23.06-.33,0-.25,0-.5.06-.74s.09-.66.13-1l.28.22.39-2.13.35.07c0-.26.06-.49.1-.72.12-.75.23-1.49.36-2.24a1.65,1.65,0,0,1,.16-.49c.09.52.17,1,.26,1.55s.19,1.2.29,1.8l.05.11.32-.09c.06.36.1.71.16,1.06s.15.67.24,1l.26-.18.25,2,.31-.13.26,1.87.37-.12,0,2.11.33-.11-.18,2.26c.17.16.36-.14.59-.05a5.83,5.83,0,0,1-.14,1.16c0,.39-.06.78-.1,1.23l.4-.2-.23,2.27.41-.15-.24,2,.47-.11c-.09.9-.33,1.76-.34,2.66l.36-.11-.55,2.59.06.05.39-.18c-.15.94-.31,1.86-.5,2.79h.34a1.32,1.32,0,0,1,0,.23c-.12.37-.24.73-.37,1.1l-.06.24-.22.78h.28c-.18.76-.59,1.44-.78,2.2l.21,0a.78.78,0,0,1,0,.22l-.42,1.25a1.33,1.33,0,0,0-.05.19c-.07.27-.07.27.2.4l-.8,2.11.28,0a3.19,3.19,0,0,1-.12.4c-.12.33-.25.66-.37,1s-.31.84-.46,1.25v0c-.19.54-.37,1.09-.56,1.64l-.21.58s0,.07,0,.14l.37-.52c.25-.4.52-.78.76-1.18s.41-.79.6-1.18.29-.58.42-.88.17-.37.25-.57c.13-.37.25-.75.39-1.13,0-.13.11-.26.2-.44l.11.58h.07c.35-.87.6-1.77.94-2.64h.06c0,.09.05.18.08.27l.11.34a2.28,2.28,0,0,0,.28-.69c.09-.21.17-.43.26-.65s.17-.42.26-.63.17-.42.28-.69l.17.34,1.34-2.71.06,0,0,.52h.05l1.48-3h.06l.11.49h.08l1.19-2.45c.26.11.11.42.32.58.4-.76.69-1.56,1.08-2.3h.06l.11.77.08,0,1.11-2,.14.49c.46-.58.7-1.23,1.18-1.76l.14.31,1.43-1.87.06.44a7.62,7.62,0,0,0,.84-1c.25-.34.53-.65.84-1l0,.52.06,0c.59-.51,1.13-1.08,1.69-1.63l.06,0,0,.52c.62-.62,1.14-1.24,1.74-1.89l.08.51a6.35,6.35,0,0,0,.8-.63c.26-.22.53-.43.8-.64s.52-.44.79-.65a6.77,6.77,0,0,1,.83-.57c-.16.29-.31.6-.49.88s-.42.63-.62.95-.48.8-.73,1.2c-.07.12,0,.17.09.2l.38.05-1.42,1.6.45.17-1.24,1.8.67.09c-.43.63-.95,1.15-1.37,1.8l.31.05.3.05a4.37,4.37,0,0,1-.6.77c-.2.22-.38.46-.58.7.23.22.52,0,.75.15l-1,1-.39.36c-.13.12-.1.2.06.25l.31.09c-.5.57-1,1.06-1.54,1.64l.43.15c-.57.51-1.18.91-1.73,1.38l0,.07.56.12c-.47.42-1,.71-1.45,1.14l.46.07a.58.58,0,0,1-.16.18l-1.64.9c-.12.07-.23.16-.4.28l.61.05,0,.07c-.67.43-1.38.77-2.09,1.21l.24.14-1.5.75.55.22c-.66.42-1.35.66-2,1l.41.35-.47.2-1.53.61s-.05.07-.1.13l.35.08a2,2,0,0,1-.22.16c-.52.21-1.05.41-1.57.63a5.08,5.08,0,0,0-.51.27l.46.19-1.8.94v.05l.52,0a1.36,1.36,0,0,1-.18.17l-1.06.68c-.3.2-.58.43-.88.63s-.61.4-.92.61-.57.37-.85.57a10,10,0,0,0-1,.75,1,1,0,0,0,.18-.05l1-.6.75-.43,1-.61.75-.43.54-.32,1.18-.71h.12l-.12.46.07,0,1.9-1.68v.64l0,0c.65-.47,1.26-1,2-1.48l-.13.63a18.39,18.39,0,0,0,1.75-1.42v.49c.08,0,.15,0,.19,0l.9-.59c.24-.16.49-.3.78-.48v.61c.79-.34,1.47-.81,2.27-1.16l-.1.68,1.15-.48,1.11-.43-.14.64c.85-.14,1.63-.36,2.44-.53v.46h.34l1.68-.22.56,0-.34.5c.75,0,1.43-.2,2.18-.21-.05.11-.08.19-.12.26s-.06.21.12.23l1.18.11,1.65.19.18.06-.18.07-.45.08c-.61.12-1.22.23-1.82.37-.41.09-.81.21-1.28.33l.43.31a.8.8,0,0,1-.2,0l-1.64.26-.14,0c.08.28.43.16.52.43l-1.71.41c0,.14,0,.14.5.39a14.5,14.5,0,0,1-2.24.36l0,.07.67.42c-.19,0-.34.09-.48.11l-1.58.17a3.12,3.12,0,0,0-.47.13l.83.5,0,.05-.23,0-1.85.32c-.18,0-.36.1-.6.16l.62.47,0,.06-1.13,0-1.42,0h-.17s-.09,0-.09.07a.17.17,0,0,0,.05.14l.43.45,0,.07-2.28-.35,0,.06.33.4,0,.05-1.3-.19L190,276.5c0,.26.32.32.3.57l-2.77-.52,0,.06.42.39a.85.85,0,0,1-.22,0c-.72-.05-1.45-.07-2.15-.19a24.22,24.22,0,0,0-3.6-.26c-.21,0-.41-.05-.62-.07a.43.43,0,0,0-.16.07l0,.06,4.36.42-.23.36,2,.13Z"/></g></svg>