<svg id="Layer_1" data-name="Layer 1" xmlns="http://www.w3.org/2000/svg" viewBox="0 0 423.57 109.91"><defs><style>.cls-1{fill:#231f20;}.cls-2{fill:#00a14b;}.cls-3{fill:#fff;}</style></defs><title>TCS</title><path class="cls-1" d="M160.91,116.17a11,11,0,0,1-4.23-.78A12.78,12.78,0,0,1,153,113L154,112a13.11,13.11,0,0,0,1.61,1.3,9.69,9.69,0,0,0,1.63.9,9.43,9.43,0,0,0,1.76.53,10.61,10.61,0,0,0,2,.18,6.83,6.83,0,0,0,2-.29,4.82,4.82,0,0,0,1.56-.82,3.63,3.63,0,0,0,1-1.23,3.37,3.37,0,0,0,.36-1.55v0a4.07,4.07,0,0,0-.23-1.4,2.74,2.74,0,0,0-.87-1.12,6.44,6.44,0,0,0-1.69-.91,17.16,17.16,0,0,0-2.74-.74,18.29,18.29,0,0,1-3-.85,7.67,7.67,0,0,1-2.06-1.15,4,4,0,0,1-1.16-1.52,5.16,5.16,0,0,1-.36-2v0a4.4,4.4,0,0,1,.48-2,5,5,0,0,1,1.31-1.63,6.12,6.12,0,0,1,2-1.09,7.83,7.83,0,0,1,2.52-.4,10.44,10.44,0,0,1,3.68.59,11.11,11.11,0,0,1,3,1.79l-.92,1.15A8.35,8.35,0,0,0,160,97.36a6.42,6.42,0,0,0-2,.29,4.93,4.93,0,0,0-1.51.8,3.44,3.44,0,0,0-1,1.17,3.23,3.23,0,0,0-.34,1.43v0a4,4,0,0,0,.24,1.42,2.73,2.73,0,0,0,.87,1.14,6,6,0,0,0,1.75.94,19.31,19.31,0,0,0,2.85.78,11.32,11.32,0,0,1,4.92,2,4.27,4.27,0,0,1,1.51,3.43v0a4.9,4.9,0,0,1-.49,2.17,5.15,5.15,0,0,1-1.34,1.69,6.22,6.22,0,0,1-2,1.09A8.42,8.42,0,0,1,160.91,116.17Z" transform="translate(-24.34 -6.32)"/><path class="cls-1" d="M181.12,116.23a9.58,9.58,0,0,1-7.13-3,10.06,10.06,0,0,1-2-3.21,10.46,10.46,0,0,1-.7-3.83v0a10.69,10.69,0,0,1,.71-3.85A10.15,10.15,0,0,1,174,99a9.37,9.37,0,0,1,3.11-2.23A9.84,9.84,0,0,1,188.31,99a9.84,9.84,0,0,1,2,3.2,10.49,10.49,0,0,1,.7,3.83,0,0,0,0,1,0,.06,10.59,10.59,0,0,1-.71,3.84,10.2,10.2,0,0,1-2,3.23,9.52,9.52,0,0,1-3.12,2.22A9.7,9.7,0,0,1,181.12,116.23Zm.06-1.32a8,8,0,0,0,3.34-.68,8.13,8.13,0,0,0,2.63-1.87,8.72,8.72,0,0,0,1.72-2.79,9.34,9.34,0,0,0,.61-3.41v0a9.37,9.37,0,0,0-.63-3.43,8.64,8.64,0,0,0-1.73-2.79A8.38,8.38,0,0,0,184.48,98a8.15,8.15,0,0,0-3.36-.7,8.07,8.07,0,0,0-6,2.56,8.65,8.65,0,0,0-1.71,2.78,9.39,9.39,0,0,0-.62,3.41v.06a9.28,9.28,0,0,0,.63,3.42,8.86,8.86,0,0,0,1.73,2.8,8.38,8.38,0,0,0,2.64,1.89A8.15,8.15,0,0,0,181.18,114.91Z" transform="translate(-24.34 -6.32)"/><path class="cls-1" d="M195.94,96.32h1.45v18.26h11.49v1.31H195.94Z" transform="translate(-24.34 -6.32)"/><path class="cls-1" d="M221,116.2a9.28,9.28,0,0,1-3.23-.54,7,7,0,0,1-2.54-1.63,7.14,7.14,0,0,1-1.67-2.64,10.32,10.32,0,0,1-.58-3.63V96.32h1.45v11.3a7.61,7.61,0,0,0,1.75,5.38,6.3,6.3,0,0,0,4.87,1.89,7.63,7.63,0,0,0,2.69-.45,5.49,5.49,0,0,0,2.05-1.34,6.05,6.05,0,0,0,1.32-2.24,9.72,9.72,0,0,0,.46-3.1V96.32H229v11.27a10.52,10.52,0,0,1-.59,3.7,7.44,7.44,0,0,1-1.64,2.7,6.94,6.94,0,0,1-2.53,1.65A9.18,9.18,0,0,1,221,116.2Z" transform="translate(-24.34 -6.32)"/><path class="cls-1" d="M239.91,97.64h-6.82V96.32h15.1v1.32h-6.82v18.25h-1.46Z" transform="translate(-24.34 -6.32)"/><path class="cls-1" d="M252.8,96.32h1.45v19.57H252.8Z" transform="translate(-24.34 -6.32)"/><path class="cls-1" d="M269.21,116.23a9.6,9.6,0,0,1-4-.83A9.53,9.53,0,0,1,260.1,110a10.46,10.46,0,0,1-.7-3.83v0a10.48,10.48,0,0,1,.71-3.85,10.15,10.15,0,0,1,2-3.22,9.43,9.43,0,0,1,3.1-2.23,10.36,10.36,0,0,1,8.08,0,9.56,9.56,0,0,1,3.1,2.21,9.86,9.86,0,0,1,2,3.2,10.71,10.71,0,0,1,.7,3.83,0,0,0,0,1,0,.06,10.39,10.39,0,0,1-.72,3.84,10.18,10.18,0,0,1-2,3.23,9.52,9.52,0,0,1-3.12,2.22A9.73,9.73,0,0,1,269.21,116.23Zm.06-1.32a8,8,0,0,0,6-2.55,8.55,8.55,0,0,0,1.72-2.79,9.35,9.35,0,0,0,.62-3.41v0a9.37,9.37,0,0,0-.63-3.43,8.81,8.81,0,0,0-1.73-2.79A8.31,8.31,0,0,0,272.56,98a8.07,8.07,0,0,0-3.35-.7,8.07,8.07,0,0,0-6,2.56,8.51,8.51,0,0,0-1.72,2.78,9.38,9.38,0,0,0-.61,3.41v.06a9.28,9.28,0,0,0,.63,3.42,8.52,8.52,0,0,0,1.73,2.8,8.27,8.27,0,0,0,2.64,1.89A8.11,8.11,0,0,0,269.27,114.91Z" transform="translate(-24.34 -6.32)"/><path class="cls-1" d="M284,96.32h1.37l13.5,17v-17h1.4v19.57h-1.09L285.42,98.5v17.39H284Z" transform="translate(-24.34 -6.32)"/><path class="cls-1" d="M312.74,116.17a11,11,0,0,1-4.24-.78,12.92,12.92,0,0,1-3.65-2.35l.95-1.09a13.91,13.91,0,0,0,1.61,1.3,9.77,9.77,0,0,0,1.64.9,9,9,0,0,0,1.76.53,10.43,10.43,0,0,0,2,.18,6.73,6.73,0,0,0,2-.29,4.77,4.77,0,0,0,1.57-.82,3.6,3.6,0,0,0,1-1.23,3.25,3.25,0,0,0,.37-1.55v0a3.84,3.84,0,0,0-.24-1.4,2.74,2.74,0,0,0-.87-1.12,6.44,6.44,0,0,0-1.69-.91,17.16,17.16,0,0,0-2.74-.74,18.58,18.58,0,0,1-3-.85,7.45,7.45,0,0,1-2-1.15,3.92,3.92,0,0,1-1.16-1.52,5.16,5.16,0,0,1-.36-2v0a4.39,4.39,0,0,1,.47-2,5.27,5.27,0,0,1,1.31-1.63,6.17,6.17,0,0,1,2-1.09,7.73,7.73,0,0,1,2.51-.4,10.4,10.4,0,0,1,3.68.59,10.82,10.82,0,0,1,3,1.79l-.92,1.15a8.35,8.35,0,0,0-5.84-2.21,6.37,6.37,0,0,0-2,.29,4.82,4.82,0,0,0-1.51.8,3.6,3.6,0,0,0-1,1.17,3.22,3.22,0,0,0-.33,1.43v0a4,4,0,0,0,.24,1.42,2.62,2.62,0,0,0,.86,1.14,6.16,6.16,0,0,0,1.75.94,20,20,0,0,0,2.85.78,11.21,11.21,0,0,1,4.92,2,4.24,4.24,0,0,1,1.51,3.43v0a4.77,4.77,0,0,1-.49,2.17,4.9,4.9,0,0,1-1.34,1.69,6.22,6.22,0,0,1-2,1.09A8.31,8.31,0,0,1,312.74,116.17Z" transform="translate(-24.34 -6.32)"/><path class="cls-1" d="M342.24,83.09H130a1.21,1.21,0,0,1,0-2.42H342.24a1.21,1.21,0,0,1,0,2.42Z" transform="translate(-24.34 -6.32)"/><g id="q0FKjk"><path class="cls-2" d="M412.39,32.37a.27.27,0,0,1-.18-.27,2.62,2.62,0,0,0,0-.42c0-.23-.1-.91-.1-.91-.11-1-.12-2-.13-2.83a6.88,6.88,0,0,0-1.64,1.71l-.06.09-.17-.08,0-.09v0l-.9.69-.17-.06V30l-.58.41-.15-.11v0l-.3.17-.38.21-.34.17.15-.3-.82.35v-.2l-.44.17-.59.19-.61.23h-.3l.07-.18a.55.55,0,0,1,.2-.2l.08-.06a1.49,1.49,0,0,1,.2-.15l.11-.07.85-.67.13-.1-.16-.07.15-.16.7-.37-.26-.17,1.12-.39a.34.34,0,0,1-.08-.09l-.09-.16,1.11-.19V28l.11,0,.76-.06,0,0-.71.08-.45,0,.08-.18a5.63,5.63,0,0,0-1,.21l-.17.07v-.18a.19.19,0,0,1,0-.15l-.62.08-.37.06-.06-.12,0,.12H406l.16-.19-.92.14-.1-.15.05-.1.11-.13-1.36,0,.06-.17a.32.32,0,0,1,.14-.16l-.41-.07c-.22,0-.45-.07-.67-.13l-.17-.06.11-.14a.43.43,0,0,1,.16-.14l-.73-.08a.37.37,0,0,1-.15,0l-.24-.09.15-.15.07-.05-.26,0-.4-.07-.52-.1.36-.2-.17,0-.74-.21.31-.18-.72-.1-.29-.05.25-.18-.86-.18q-.36-.07-.72-.18l-.56-.17.8-.11.54-.07.55,0H400l-.1-.23h.21a2.58,2.58,0,0,1,.53,0l.28,0-.05-.08.07-.15.1,0,1.1.14v-.16l.14-.07a4.37,4.37,0,0,1,.52.12l.5.11-.08-.33.21.06a4.07,4.07,0,0,1,.58.22l.35.14,0-.34.2.09c.21.09.41.2.61.31l.32.18,0-.27.18.06a.49.49,0,0,1,.16.06l.44.31.17.1v-.29l.2.13a1.9,1.9,0,0,1,.4.35,1,1,0,0,0,.22.18v0l.14-.11.1,0,.75.56V25l.9.8h0l.2,0,.15.08.23.13-.41-.3.2,0-.79-.4.22-.1-.31-.14-.41-.17-.25-.1,0-.15-1-.43.19-.17-.12-.07-.25-.11a2.48,2.48,0,0,1-.32-.17l-.39-.21.28-.1-.71-.36.14-.07-.94-.54,0-.19h.05l-.88-.51.07-.17,0,0-.74-.56.33-.06-.19-.17-.24-.18-.42-.34.29-.1h0s-.06,0-.09-.06l-.53-.54.07-.12-.12,0-.07-.13.19-.07-.57-.58-.14-.18.17-.09h.16c-.06-.07-.11-.14-.17-.2a2.88,2.88,0,0,1-.3-.39l-.1-.16.27-.05-.27-.36-.21-.26-.05-.08-.08-.16.16-.06.12,0c-.06-.1-.14-.2-.21-.3a4.78,4.78,0,0,1-.29-.44l-.07-.13.2-.07-.05,0a.6.6,0,0,1-.08-.08l-.31-.35-.29-.34.36-.06-.11-.09-.32-.5-.49-.82.05-.13.07-.14,1.48,1.2,0-.28.18.17c.17.17.33.34.48.52l.18.2V14.6l.2.19c.12.1.22.21.33.32l.37.36v-.1l.16,0,.09.05.62.78,0-.16.19.15.52.68,0-.33.68,1.08.08-.29.24.45c.06.12.12.24.18.34l.12.21,0-.25.2.11.08.07.17.38.2.42,0,.06,0-.07.09,0h.08l.08.07.46,1,.14-.19.1.17c.13.24.25.49.36.73l.23.46.15-.05.08.09.53,1.07h.13l.07.08.18.44.05.16a1.69,1.69,0,0,0,.11.27,1,1,0,0,1,.07.15l.06-.23.15.22a1.62,1.62,0,0,1,.21.47,1.72,1.72,0,0,0,.07.21q.06.16.12.36l.14-.15.4,1,.2.49a2.55,2.55,0,0,0,.13.29,3.79,3.79,0,0,0,.2.34l.09.14-.27-.84,0-.13-.2-.62.12,0-.52-1.17.12,0-.15-.6-.12-.37.13,0h0a3.25,3.25,0,0,0-.15-.4,3.69,3.69,0,0,1-.19-.56l0-.16h.13l-.13-.35-.25-.8h.2a2,2,0,0,0-.07-.31,2,2,0,0,1-.07-.48.8.8,0,0,0,0-.15.65.65,0,0,1,0-.35l0-.15.13.06L410,17.78l.22.07a5.39,5.39,0,0,0-.08-.56,3.68,3.68,0,0,1-.08-.58v-.17l.22.05-.12-1,.2.07-.12-1.15.21.1a4.78,4.78,0,0,0-.06-.53l-.06-.46v-.17l.31.07-.09-1.18.18.07v-1l.27.07,0-.28,0-.39,0-.1.05-.14.13,0s0-.29,0-.36.1-.71.1-.71l.14.11.18-1,.17,0L412,7.34a1,1,0,0,1,.09-.28l.17-.37.33,2,.12,0,.07.13,0,.17c0,.12,0,.23.05.35s.05.22.08.34h0l.16.11.1.85.14-.06,0,.15.11.78h0l.18.11v.87h0l.15.13-.08,1a.2.2,0,0,1,.11,0l.07,0,.1.09a1.17,1.17,0,0,1,0,.38.85.85,0,0,0,0,.22,2.66,2.66,0,0,1,0,.39l.2-.1-.11,1.15.14-.05,0,.18-.09.81.23-.06,0,.18c0,.17-.05.35-.07.52s-.07.41-.09.61l.21-.06-.27,1.28.17-.08v.21c-.07.42-.14.83-.22,1.24h.17l-.06.28-.18.55-.15.07.12,0-.06.22h.13l0,.16a4,4,0,0,1-.2.58,2.74,2.74,0,0,0-.15.4l.07.12,0,.13-.21.62,0,.15.11.05v.09l-.34.91.09.14c0,.12-.05.17-.06.21l-.4,1.06-.15.43a1.19,1.19,0,0,0,.09-.15,5.06,5.06,0,0,0,.24-.46l.06-.12.21-.43c0-.09.08-.18.11-.27l.2-.56s.22-.49.22-.49l.09.23.13-.37c.07-.2.13-.41.21-.61l0-.08h.18l0,.07s.52-1.26.52-1.26l.09.19.6-1.2.18,0h0l.62-1.22h.17l0,.07.51-1.07.11,0a.2.2,0,0,1,.12.1l.15-.32a6.11,6.11,0,0,1,.27-.58l0-.08.18,0,0,.1v.06l.54-1,.09.28.11-.19a3.14,3.14,0,0,1,.33-.48l.13-.14.06.14.77-1,0,.25.23-.3a4.11,4.11,0,0,1,.29-.35l.32-.39,0,.35c.15-.13.29-.28.43-.42l.31-.3.14.07,0,.07.66-.74.17-.19.06.31.22-.19.79-.64a3,3,0,0,1,.43-.29l.38-.22-.28.52-.17.31-.31.47-.32.52.26,0-.08.18-.59.66.13,0,0,.17-.49.72.33,0-.12.17a4.46,4.46,0,0,1-.33.43l-.23.3.23,0,0,.16a2.47,2.47,0,0,1-.29.39l-.18.2h0a.4.4,0,0,1,.2,0l.13.09L422,19l-.2.19.11-.05.19.05-.11.15c-.13.16-.27.3-.41.45l-.22.23.23.08-.15.14a5.84,5.84,0,0,1-.5.4l-.2.15.32.07-.19.16a4.57,4.57,0,0,1-.36.29l-.15.1.18,0-.15.17a.44.44,0,0,1-.11.12l-.69.37h0l0,.17-.06.08a6.05,6.05,0,0,1-.55.32l-.31.18h0l-.09.17-.5.25.25.1-.21.13a5.46,5.46,0,0,1-.59.3l-.25.12.21.18-.42.19-.5.2.11,0-.22.17-.13.09-.79.32.23.09-.79.41h.06l-.12.21h0l.14-.09.1.1v-.12l.18,0v.06l.88-.78v.38l.28-.21.53-.39.26-.19-.07.31.4-.34.4-.34v.31l.14-.07.21-.14L419,24v.33a3.72,3.72,0,0,0,.39-.21,4.87,4.87,0,0,1,.56-.28l.21-.1-.06.35,1.15-.45-.09.36.6-.13.57-.13V24l.86-.11.54,0-.17.26.32,0a3,3,0,0,1,.51-.06h.2l-.11.25.51.05.82.1,0,.13.08-.1.34.1-.44.17-.44.09-.68.14-.38.09.21.15-.36.1-.58.09.06.1,0,.13-.74.18.3.16L423,26a4.63,4.63,0,0,1-.8.14h0l.33.21-.29.07-.25.06-.7.07.23.14,0,.1,0,.06-.09.05-1.07.18.18.14-.06.17-.1,0-1.18,0,.12.13,0,.14-.05.08-.1,0-.85-.13,0,0-.08.15-.11,0-.64-.1-.39-.05a.28.28,0,0,1,0,.13V28L416,27.83l.14.13-.39,0-.34,0-.61,0,0,0,.79.06.09.1,0,.09,0,0,.91.15,0,.14.08-.1.22.1-.26.15,1.12.39-.27.17.33.17a2.53,2.53,0,0,1,.36.2l.13.07-.1.12,0,0,1.39,1.08.22.16v.13l0,.1h-.11l-.15,0-.72-.26-.79-.3-.09,0v.05l-.05.1-.12,0L417,30.5l-.1.14-.11,0-.66-.36.06.25-.26-.13-.49-.35,0,.05-.06.1-.08.06-.1,0-.85-.66a.31.31,0,0,1,0,.1l0,.28-.34-.42-.11-.15a2.48,2.48,0,0,0-.19-.26,5.62,5.62,0,0,0-.41-.44c-.19-.19-.39-.37-.59-.54l-.21-.16v.43c0,.4,0,.81,0,1.22a1.79,1.79,0,0,0,0,.23c0,.07,0,.15,0,.23a4.16,4.16,0,0,0,0,.45,4.62,4.62,0,0,1,.07.65c0,.15,0,.3,0,.44a.87.87,0,0,0,.07.34c.09.19.05.32-.06.4l0,0-.13,0Z" transform="translate(-24.34 -6.32)"/><path class="cls-3" d="M412.23,7.11c0,.26.09.51.13.77l.15.89s0,0,0,.05l.16,0c0,.18.05.35.08.53s.07.33.11.52l.14-.09c0,.33.07.66.12,1l.15-.07c0,.31.09.61.13.93l.18-.06c0,.35,0,.68,0,1l.16-.05c0,.37-.06.73-.09,1.12l.06,0c.06,0,.12-.06.19-.06H414a3.7,3.7,0,0,1-.07.57c0,.2,0,.39-.05.61l.2-.09L414,15.84l.2-.08c0,.34-.08.66-.12,1l.24-.06c0,.45-.16.87-.17,1.32l.18-.05c-.1.44-.19.86-.28,1.28l0,0,.2-.1c-.08.47-.16.92-.25,1.39h.17s0,.08,0,.11-.13.36-.19.55l0,.11c0,.13-.07.25-.11.39h.14c-.09.38-.29.71-.39,1.09l.11,0s0,.07,0,.11l-.21.62a.29.29,0,0,0,0,.09c0,.14,0,.14.1.2-.14.34-.27.69-.4,1l.14,0-.06.2-.19.48c-.07.21-.15.42-.22.62h0c-.09.28-.18.55-.28.82,0,.09-.07.19-.1.29s0,0,0,.07l.18-.27c.12-.19.26-.38.37-.58s.21-.39.3-.58.14-.29.21-.44a2.36,2.36,0,0,0,.12-.28c.07-.18.13-.37.2-.56a1,1,0,0,1,.1-.22l.05.29h0c.17-.43.29-.88.46-1.31h0l0,.13c0,.05,0,.09.05.17a.94.94,0,0,0,.14-.34c0-.11.09-.22.13-.32s.09-.21.13-.31.09-.21.14-.35l.08.17c.23-.46.45-.9.66-1.34h0l0,.26h0l.73-1.46h0l.06.24h0c.19-.41.39-.81.59-1.22.13.06.05.21.16.29.19-.38.34-.77.53-1.14h0l.05.38h0l.55-1,.07.24c.23-.28.35-.6.58-.87l.08.16.7-.93,0,.22a4.64,4.64,0,0,0,.42-.5c.12-.17.26-.32.41-.51l0,.26,0,0c.3-.26.56-.54.84-.81l0,0,0,.25c.3-.3.56-.61.85-.93,0,.1,0,.16,0,.25a2.55,2.55,0,0,0,.4-.32l.4-.31.39-.32a4.27,4.27,0,0,1,.41-.29c-.08.15-.15.3-.24.44l-.31.47-.36.59c0,.06,0,.09,0,.1a.84.84,0,0,0,.19,0l-.7.79.22.08-.61.9.33,0c-.21.31-.47.57-.68.89l.15,0,.15,0a2.37,2.37,0,0,1-.29.38c-.1.11-.19.23-.29.35a.21.21,0,0,0,.15.05h.11a.2.2,0,0,1,.11,0l-.5.52-.2.18c-.06.06,0,.1,0,.12l.15,0c-.25.29-.51.53-.76.81l.21.08c-.28.25-.58.45-.86.68l0,0,.28.06c-.23.21-.49.35-.72.56l.23,0s-.05.07-.08.09l-.81.44a1.5,1.5,0,0,0-.2.14l.3,0v0c-.33.21-.69.38-1,.6l.12.07-.75.37.27.11c-.33.2-.66.33-1,.51l.2.17-.23.1-.75.3s0,0-.05.07l.17,0-.11.08-.77.31a1.58,1.58,0,0,0-.26.13l.23.1-.89.46v0l.25,0a.73.73,0,0,1-.08.09l-.53.33-.43.31c-.15.11-.31.2-.46.3l-.42.28a6,6,0,0,0-.5.38s.07,0,.09,0l.51-.3.37-.21.51-.3.37-.21a2.26,2.26,0,0,1,.26-.16l.59-.35h.06l-.06.23h0l.94-.82v.31l0,0c.32-.23.62-.48,1-.73l-.07.31a9.86,9.86,0,0,0,.87-.7v.24s.07,0,.09,0l.45-.29.38-.23v.3c.4-.17.73-.4,1.13-.58l0,.34.57-.24.55-.21-.07.32c.42-.07.8-.18,1.21-.27v.23h.16l.84-.11.27,0-.17.25h.09c.34,0,.65-.1,1-.1l-.05.12c0,.09,0,.11.06.12l.58.05.81.1a.19.19,0,0,1,.09,0l-.08,0-.23,0-.9.18-.63.17.21.15-.1,0-.81.13h-.07c0,.14.22.08.26.21l-.85.21c0,.07,0,.07.25.19a8.55,8.55,0,0,1-1.11.18v0l.33.21-.24.05-.78.09-.23.06.41.25v0l-.11,0-.92.15-.29.08.3.23v0l-.56,0-.71,0h-.08s-.05,0-.05,0a.11.11,0,0,0,0,.07l.21.22v0L418,27.54l0,0,.17.2,0,0-.64-.1-.66-.09c0,.13.16.16.15.28l-1.37-.25v0l.21.2h-.11c-.36,0-.72,0-1.07-.1a11.75,11.75,0,0,0-1.78-.13l-.3,0h0l-.07,0v0l2.16.21-.11.17,1,.07v0l-.22.11v0l.18,0,1,.17.07,0-.23.13s0,0,0,.05l1.09.38-.21.13c.27.2.58.31.86.48l0,0s-.11,0-.12.07.07.07.1.1l.51.39.44.34.46.36.2.14,0,0-.14,0-.72-.26-.78-.3a1.14,1.14,0,0,0-.33-.07l.09.15v0l-.94-.39v0l.1.17,0,0-.88-.48,0,0,.06.23-.78-.55a.23.23,0,0,0,0,.19,1,1,0,0,1,.06.16l0,0-1-.81c-.09.11,0,.21,0,.33l-.16-.19c-.1-.14-.2-.29-.31-.42a5.92,5.92,0,0,0-.41-.45,6.2,6.2,0,0,0-.61-.54c-.12-.1-.22-.23-.4-.25a.43.43,0,0,0,0,.11c0,.57,0,1.14,0,1.72,0,.15,0,.3,0,.46a2.42,2.42,0,0,0,0,.47c.07.36.06.73.11,1.09a.89.89,0,0,0,.09.39s0,0,0,0a.15.15,0,0,1-.05.18.13.13,0,0,1-.09,0h-.05a.15.15,0,0,1-.09-.15c0-.14,0-.29,0-.43,0-.31-.07-.61-.1-.91V30.7a26.11,26.11,0,0,1-.12-2.8,1.68,1.68,0,0,0,0-.18,7.27,7.27,0,0,0-1.85,1.86h0v-.29l-1.05.8h0l.09-.32,0,0-.75.54,0,0,0-.11a.29.29,0,0,0,0-.11c-.32.13-.61.33-.95.5l.12-.22,0,0-.92.39,0-.2-.34.12-.31.12-.59.2-.59.22h-.1c.06-.11.17-.15.26-.23s.19-.13.29-.21l.3-.23.28-.22.27-.23.32-.22-.21-.09.89-.47-.23-.15,1.1-.38c0-.13-.18-.09-.24-.19l1.26-.23v0l-.22-.12v0l1-.07-.11-.17,2.2-.21s0-.06-.05-.06h0l-1.45.08-.46,0-1.1.12-.25,0,.16-.2h0a7.26,7.26,0,0,0-1.33.24c0-.13.16-.17.16-.3h-.07l-.81.13c-.13,0-.25,0-.37.06h-.08l.18-.22,0,0-1.12.18,0,0,.21-.22s0-.05,0-.06l-.07,0h-.08l-1.26,0c0-.14.23-.14.28-.28-.42-.12-.87-.13-1.3-.26.09-.12.27-.14.38-.25a1.12,1.12,0,0,0-.43-.1l-.61-.06-.18-.06.34-.21a3.29,3.29,0,0,0-.58-.09l-.58-.1.29-.16v0a2.2,2.2,0,0,0-.43-.09l-.45-.13.29-.17v0l-1-.16.2-.15a.61.61,0,0,0-.17-.07l-.92-.19q-.36-.07-.72-.18l.76-.11.81-.07-.1-.23h.07c.31,0,.61.1.94.1h.08L401,24l0,0,1.23.15v-.25c.4.08.79.2,1.21.26l-.07-.3c.38.11.72.31,1.11.42a1.15,1.15,0,0,1,0-.16c0-.05,0-.09,0-.16.39.18.73.4,1.13.59l0-.3.13,0,.44.31.3.17h.07v-.24a2,2,0,0,1,.38.33,1.9,1.9,0,0,0,.39.31s.05,0,.1,0l0-.22,0,0,.93.69,0,0V25.3l.95.84,0,0,0-.1a1.3,1.3,0,0,1,0-.15l.15.07.84.5.65.38.88.52a.62.62,0,0,0,.26.12c-.79-.57-1.6-1.11-2.4-1.69l.23,0v0l-.89-.46.23-.1-.56-.26-.57-.23v0l.14,0s0-.06,0-.07l-.34-.13-.62-.27.17-.16s-.05-.06-.08-.08l-.45-.19c-.15-.07-.29-.16-.46-.25l.29-.11-.73-.37.11,0,0,0-1-.58v0h.3v0l-1.09-.63v0l.19,0,0,0-.72-.54.3-.06s0-.07,0-.08l-.57-.44-.25-.2.12,0c.08,0,.09-.07,0-.13l-.17-.18-.48-.48,0-.07.22-.08a.94.94,0,0,1-.09-.12l-.6-.61-.05-.06.37,0c-.18-.28-.41-.48-.59-.76l.15,0,.13,0s0-.08,0-.1l-.57-.69-.06-.11.31,0c-.17-.33-.41-.58-.59-.9l.19-.07c0-.13-.13-.18-.2-.27l-.46-.52.14,0c.1,0,.11,0,.07-.13a.78.78,0,0,0-.1-.15l-.31-.5-.33-.53-.12-.22a.06.06,0,0,1,0-.07l1.54,1.23,0-.25c.31.3.56.62.86.93l0-.3c.3.29.57.58.89.85,0-.07,0-.11,0-.15v-.11h0l.77,1h0l0-.19c.24.31.46.61.69.9h0l0-.24.6,1h0l.06-.22c.11.19.19.37.28.53s.17.33.28.49l0,0,.05-.38.06,0c.06.13.11.26.17.38s.13.28.2.42a1.57,1.57,0,0,0,.09.23s0,.05.07.09l.1-.28h0c.2.4.39.81.59,1.21.1-.06.05-.17.12-.26.26.5.49,1,.75,1.5h0v-.26h0c.22.45.43.89.65,1.33h0l0-.19h0c.06.14.13.29.18.43a3.61,3.61,0,0,0,.17.46c.08.13.08.31.21.44l.08-.3a2.94,2.94,0,0,1,.26.65c.09.22.15.44.23.67.11-.06,0-.19.11-.27a1.67,1.67,0,0,1,.08.2l.24.62c0,.13.11.25.16.38s.11.28.18.42l.29.49.32.51.16.23h0l-.17-.48-.14-.44c-.08-.25-.16-.51-.25-.76l0-.13c0-.16-.1-.32-.16-.48l.14,0c-.18-.4-.36-.79-.53-1.19,0,0,.1,0,.11,0s0-.07,0-.1c-.08-.28-.17-.56-.27-.85l.13,0c-.08-.37-.29-.7-.37-1.08h.12l0,0c-.06-.17-.11-.33-.17-.49s-.13-.42-.2-.64h.15a1.43,1.43,0,0,0-.07-.46,2.42,2.42,0,0,1-.06-.46c0-.15-.11-.29-.08-.46l.19.09,0,0c-.1-.42-.19-.85-.28-1.29l.18.05c0-.44-.14-.86-.17-1.31l.23.05c0-.33-.07-.65-.11-1l.19.06-.12-1.11.2.09c0-.41-.09-.79-.12-1.2l.15,0,.15,0c0-.39-.05-.76-.08-1.15l.14.06a2.29,2.29,0,0,0,0-.52c0-.17,0-.34,0-.52l.14,0s.06,0,.07-.15,0-.41.08-.61a.43.43,0,0,1,0-.14l.14.08c0-.07,0-.12,0-.17s0-.24,0-.36,0-.33.06-.5l.14.11c.07-.37.13-.71.19-1.05l.17,0c0-.13,0-.24.06-.36,0-.37.11-.74.17-1.1a.81.81,0,0,1,.08-.25m.13-.79L412,7a1.11,1.11,0,0,0-.11.3l-.15,1,0,.14,0,.1-.16,0,0,.25-.12.65-.12-.1-.1.41,0,.15c0,.11,0,.23,0,.35s0,.11,0,.17l-.06,0-.11.28a.49.49,0,0,0-.05.18l0,.33,0,.17-.23-.06v.48c0,.12,0,.24,0,.35v.17l-.19-.07,0,.39.06.81-.31-.07,0,.34a3.93,3.93,0,0,0,.06.48c0,.1,0,.2,0,.29l-.22-.1,0,.44.08.74-.19-.07,0,.39,0,.37,0,.26-.21,0,0,.32a6,6,0,0,0,.09.61c0,.12,0,.24.05.35l-.2-.05.05.39.09.39.09.44,0,0-.07.3a.78.78,0,0,0,0,.42.7.7,0,0,1,0,.12,2.49,2.49,0,0,0,.07.5c0,.06,0,.1,0,.15h-.22l.1.33.06.18.15.45.06.19h-.07l0,.31a3.7,3.7,0,0,0,.19.59l.11.26-.14,0,.09.25.06.19c.06.18.11.35.16.52l-.17.06.11.25.23.52.17.37-.08,0h0l-.09-.24-.06-.14,0-.07-.15-.36-.12.14c0-.06-.05-.12-.07-.17l-.06-.2a1.62,1.62,0,0,0-.23-.51l-.31-.43,0,.13,0-.06a1.21,1.21,0,0,0-.05-.18c0-.1-.09-.2-.13-.31l-.05-.13-.08-.17-.17,0-.42-.87-.07-.13-.1-.2-.18.07-.17-.36c-.12-.25-.24-.49-.37-.74l-.19-.34-.13.18-.38-.78-.08-.15H407l-.06-.12-.1-.19-.08-.19-.09-.19,0-.09L406.5,18l-.31-.13v0a2,2,0,0,1-.13-.25L406,17.5l-.29-.55-.1.33v0l-.32-.5-.41-.66,0,.39-.31-.41-.35-.46,0,.25-.1-.12-.35-.44-.1-.13-.16,0-.13,0L403,15l-.33-.32-.4-.38v.25l-.46-.5-.35-.34-.05.3-1.19-1-.24-.19-.14.27a.31.31,0,0,0,0,.31,2.53,2.53,0,0,0,.13.22l.08.13c.08.14.16.28.25.42s.15.24.23.36l.05.08-.35.06.29.33.14.16.31.35-.14,0,.13.26a5,5,0,0,0,.3.45,1.13,1.13,0,0,0,.1.13l-.29,0,.17.32a1.46,1.46,0,0,0,.09.15l.23.27a1.15,1.15,0,0,0,.14.17l-.27.06.19.31a3.3,3.3,0,0,0,.32.4h0l-.36,0,.27.36.07.09.2.2.24.24-.15.05.14.26a.75.75,0,0,0,.07.12l.37.38.09.09-.24.08.3.3.08.07.17.13.22.17-.35.07.44.34.42.32-.07.18.18.14.66.38,0,.19.15.14.67.37-.16.08.44.23.22.11-.27.1.49.26.15.08a3.37,3.37,0,0,0,.32.17l.21.1-.2.18.36.15.18.08.44.2.09,0,0,.13.19.11.1,0v.22l-.36-.28-.19-.13-.15-.12-.15.11,0,0a.24.24,0,0,1-.09-.08,1.84,1.84,0,0,0-.43-.37l-.39-.27v.31l-.2-.14-.22-.15a.56.56,0,0,0-.17-.07l-.34-.09v.2l-.14-.08c-.2-.11-.4-.22-.62-.32l-.41-.18.05.35-.15-.06a4.68,4.68,0,0,0-.6-.22l-.4-.11.08.34-.31-.08-.52-.11-.29-.05v.26l-.42-.06-.54-.06-.18,0-.08.16,0,.08-.1,0a3.85,3.85,0,0,0-.5-.05H400l-.37,0,.11.24-.46.05-.54.07-.23,0-1.16.16,1.12.33c.25.07.49.13.74.18l.45.09.14,0-.26.2.57.1.29,0h.05l-.23.14.57.16.11,0,.21.06-.38.22.68.12.19,0,.3.06-.19.12.48.18.06,0a.69.69,0,0,0,.17.05l.3,0h.16l-.19.26.35.1a4.33,4.33,0,0,0,.68.14l.19,0s0,0,0,0l-.12.33h.46l.8,0-.06.06.11.17.09.13h.18l.28,0,.23,0-.1.13.49,0h.14l.15,0,.22,0,.43-.06h0v.37l.34-.15a5.48,5.48,0,0,1,.68-.15l-.14.16.56,0h0l-.84.15-.35.06.16.28-.71.25-.49.17.3.19-.12.07-.39.2-.46.24.29.12-.16.13-.09.07-.06.06-.22.17,0,0-.25.19-.1.07-.22.16-.06.05a.64.64,0,0,0-.24.25l-.17.32.37,0h0a.47.47,0,0,0,.19,0l.21-.08.37-.14.32-.1.27-.09.21-.08h0l-.06.22.46-.19.33-.14-.18.34.69-.35.38-.21.2-.11,0,0,.14.09.17-.08.07,0,.23-.16.16,0,.13,0,.12-.07.69-.53.1.05.19.08.15-.16a7,7,0,0,1,1.42-1.53c0,.79,0,1.67.12,2.54h0v.05l0,.28c0,.21.05.42.07.63s0,.24,0,.36v.05a.4.4,0,0,0,.26.39h.13a.37.37,0,0,0,.24-.07.4.4,0,0,0,.13-.48h0a.25.25,0,0,0,0-.09.41.41,0,0,1,0-.19v-.09c0-.15,0-.29,0-.44a5.54,5.54,0,0,0-.08-.67,1.83,1.83,0,0,1,0-.34V30a1.79,1.79,0,0,0,0-.23,1.62,1.62,0,0,1,0-.22c0-.4,0-.81,0-1.21V28.2h0a7.62,7.62,0,0,1,.58.53,4.07,4.07,0,0,1,.4.43,2.35,2.35,0,0,1,.19.25l.11.16.11.13.06.07.35.43.07-.43.47.36.2.16.15.12.16-.12.07-.05.34.24.56.39-.1-.37h0l.4.22.18.1.13-.16h0l.58.24.2.08.1-.17.38.14.37.14.7.25.14.05.19,0,.13-.16.1-.19-.16-.15-.06-.05-.12-.09-.45-.34-.2-.16-.26-.2-.18-.14-.19-.15.11-.15-.22-.16-.38-.2-.13-.07L418,29l-.5-.17-.61-.22.23-.13-.44-.2a.31.31,0,0,0-.13-.06l-.68-.11-.1,0h0l.55-.05,0,0,.63.12.28.05v-.27l.22,0,.45.06.19,0,.19,0,.08-.17,0,0,.26,0,.45.07.18,0,.08-.16.08-.16-.05-.08h1.09l.06-.15.07-.18,0-.05.44-.07.27-.05h.08l.14,0,.09-.14.07-.19,0,0,.37,0,.19,0,.08,0,.58-.14-.28-.17a5,5,0,0,0,.5-.11l.58-.17-.28-.16h0l.26-.07.26-.06-.07-.22.41-.07.09,0,.47-.15-.16-.14.14,0,.67-.14.22,0,.11,0,.12,0h0l.08,0,.62-.28-.62-.2-.13,0-.16,0-.66-.08-.3,0h0l.12-.26h-.39a4.34,4.34,0,0,0-.53.05h-.05l.17-.24-.52,0h-.1l-.18,0-.41,0-.31,0v-.28l-.31.07-.42.1-.4.09.09-.41-.44.18-.18.07-.37.14-.17.07,0-.35-.41.18c-.2.09-.38.19-.57.29l-.21.12v-.35l-.38.23-.13.08-.25.16-.16.1V24l-.41.35-.2.16-.12.11.06-.26-.52.37-.53.39-.08.06V25h0a.56.56,0,0,0,.14-.09l.43-.32h0l.18-.08.16-.07.08,0,.36-.17-.22-.18.08,0a5.83,5.83,0,0,0,.6-.32l.42-.26-.21-.08.25-.13.41-.21L419,22.9l.12-.07c.19-.1.38-.21.55-.32l.16-.1-.05-.18v0l.17-.1.42-.22a.53.53,0,0,0,.13-.13l.25-.33-.08,0a3.65,3.65,0,0,0,.31-.24l.37-.33-.28-.06c.16-.13.32-.25.48-.39l.31-.29-.25-.08.09-.1.42-.44.25-.3-.22-.07.32-.33.15-.15.22-.23-.27-.16,0,0v0a3.39,3.39,0,0,0,.33-.42l.17-.31-.25-.05.11-.13c.12-.14.23-.29.34-.44l.22-.34-.32,0,.06-.09.32-.46.18-.27-.18-.07.46-.51.31-.35-.37-.05h0l.21-.35.14-.2c.06-.09.12-.18.17-.27s.12-.21.18-.31l.07-.14.42-.77-.76.44a3.89,3.89,0,0,0-.45.3l-.22.19-.17.13-.16.13-.24.19L423,14l0-.34-.35.38c-.11.11-.21.23-.32.35l-.25.28h0l-.16-.08-.16.11-.25.25-.24.23,0-.4-.39.47-.14.17a4.29,4.29,0,0,0-.28.35l0,0,0-.25-.37.48-.14.18-.32.42-.06-.13-.25.29a2.08,2.08,0,0,0-.31.44L418.8,17l-.29.52-.18.33-.09.18-.12,0L418,18l-.11.15c-.1.19-.19.39-.28.59s-.05.11-.07.17l0,0-.22-.09-.1.21-.26.55-.14.28h-.21l-.1.14L415.9,21l-.16,0-.12.17-.37.76-.07.12-.1-.2-.21.51-.05.13-.09.21,0,.06-.1.25-.06.14,0,.08h-.21l-.09.15a5.17,5.17,0,0,0-.18.51l0-.22-.32.72,0,.08a.77.77,0,0,0-.07.16l0,.07h-.06l.09-.24.19-.5.08-.22-.16-.07h0l.08-.25.13-.37a.5.5,0,0,0,0-.12l0-.23-.06,0c0-.08.07-.17.1-.26a3.86,3.86,0,0,0,.21-.6l.08-.31h-.13l0-.07,0-.1.08-.24.1-.31,0-.11,0-.29-.15,0c.07-.37.13-.74.19-1.12l.08-.47-.21.1.18-.83.09-.42-.23.07a3.12,3.12,0,0,1,.06-.41c0-.17.06-.35.08-.53l0-.35-.23.05,0-.21,0-.42.05-.41-.21.08.07-.72.05-.45-.2.1a1.09,1.09,0,0,1,0-.18.75.75,0,0,1,0-.2,1,1,0,0,0,0-.42l0-.14-.13,0-.05,0H414l.06-.81,0-.37-.2.06v-1l-.22.07-.09-.63-.05-.32-.14.06,0-.3-.05-.38-.05-.41-.16.11a.83.83,0,0,1,0-.15c0-.12,0-.23-.05-.35l0-.17,0-.28-.18,0-.08-.45,0-.22-.12-.73-.13-.79Zm-3.87,18.84-.06-.05h0l.05,0,0,0Zm7.47,0,0,0,0,0Zm-.56.48.1-.06-.05.05Z" transform="translate(-24.34 -6.32)"/></g><path class="cls-1" d="M30.83,66.45h5.05V35.38H33.24a14.22,14.22,0,0,0-2,.16,5.87,5.87,0,0,0-2.3.88,7.91,7.91,0,0,0-2.22,2.3,14.73,14.73,0,0,0-1.84,4.34h-.5V34.74H52v8.32h-.5a14.73,14.73,0,0,0-1.84-4.34,7.91,7.91,0,0,0-2.22-2.3,5.87,5.87,0,0,0-2.3-.88,14.33,14.33,0,0,0-2-.16H40.42V66.45h5v.64H30.83Z" transform="translate(-24.34 -6.32)"/><path class="cls-1" d="M56.4,50.87a15.85,15.85,0,0,1,1.43-6.72,18.56,18.56,0,0,1,3.68-5.36,17,17,0,0,1,5.07-3.57,13.25,13.25,0,0,1,5.63-1.3,13.83,13.83,0,0,1,5.84,1.3,16.63,16.63,0,0,1,5.06,3.57,17.34,17.34,0,0,1,3.57,5.36A16.76,16.76,0,0,1,88,50.87a16.42,16.42,0,0,1-1.23,6.22,17.71,17.71,0,0,1-3.36,5.41,16.85,16.85,0,0,1-5,3.82,13.56,13.56,0,0,1-6.2,1.45,14.24,14.24,0,0,1-6.31-1.41,16.12,16.12,0,0,1-5-3.75,17.27,17.27,0,0,1-3.3-5.4A17.47,17.47,0,0,1,56.4,50.87Zm5.22,0A41.17,41.17,0,0,0,62.17,58,14.25,14.25,0,0,0,64,63.09a8.1,8.1,0,0,0,3.27,3,12.7,12.7,0,0,0,9.88,0,8,8,0,0,0,3.29-3A14.25,14.25,0,0,0,82.25,58a40.2,40.2,0,0,0,.55-7.13,44.4,44.4,0,0,0-.41-6.07,16.61,16.61,0,0,0-1.57-5.22,9.32,9.32,0,0,0-3.23-3.66,9.58,9.58,0,0,0-5.38-1.36,9.6,9.6,0,0,0-5.38,1.36,9.32,9.32,0,0,0-3.23,3.66A16.87,16.87,0,0,0,62,44.8,44.4,44.4,0,0,0,61.62,50.87Z" transform="translate(-24.34 -6.32)"/><path class="cls-1" d="M99,66.45h5V35.38h-2.64a14.33,14.33,0,0,0-2,.16,5.77,5.77,0,0,0-2.29.88,7.8,7.8,0,0,0-2.23,2.3A14.73,14.73,0,0,0,93,43.06h-.5V34.74h27.62v8.32h-.5a14.73,14.73,0,0,0-1.84-4.34,7.91,7.91,0,0,0-2.22-2.3,5.87,5.87,0,0,0-2.3-.88,14.22,14.22,0,0,0-2-.16h-2.64V66.45h5v.64H99Z" transform="translate(-24.34 -6.32)"/><path class="cls-1" d="M120.51,66.45h4l12.27-32.53h1.09l12.36,32.53h4v.64h-14v-.64h5l-4.77-12.63H130l-4.77,12.63h5v.64h-9.76ZM135.27,40l-5,13.22h10Z" transform="translate(-24.34 -6.32)"/><path class="cls-1" d="M157.79,66.45h5V35.38h-5v-.64h14.63v.64h-5V66.45h8.09A8,8,0,0,0,181.73,64a15.3,15.3,0,0,0,3.32-6.82h.5v10H157.79Z" transform="translate(-24.34 -6.32)"/><path class="cls-1" d="M230.66,67.09H230a4.55,4.55,0,0,0-.72-.66,2.2,2.2,0,0,0-1.28-.29,4.82,4.82,0,0,0-1.47.25l-1.82.56a21.27,21.27,0,0,1-2.29.57,14.43,14.43,0,0,1-2.82.25,14.72,14.72,0,0,1-10.68-4.45,19.68,19.68,0,0,1-3.72-5.27,15.75,15.75,0,0,1-1.5-7,17.56,17.56,0,0,1,4.63-11.95,16.3,16.3,0,0,1,5.13-3.75,15.07,15.07,0,0,1,6.46-1.39,10,10,0,0,1,2.5.28,15.53,15.53,0,0,1,1.95.61c.57.23,1.1.43,1.59.61a4,4,0,0,0,1.41.27,2.16,2.16,0,0,0,1.29-.29,5.55,5.55,0,0,0,.71-.66H230v9.09h-.5a26.27,26.27,0,0,0-1.05-3.41,9.61,9.61,0,0,0-1.77-3,8.5,8.5,0,0,0-2.88-2.09,10.52,10.52,0,0,0-4.34-.79,10.35,10.35,0,0,0-4.14.75,8.67,8.67,0,0,0-2.9,2,9.61,9.61,0,0,0-1.89,2.91,17.46,17.46,0,0,0-1.07,3.49,29,29,0,0,0-.48,3.73c-.07,1.26-.11,2.45-.11,3.57a34,34,0,0,0,.77,7.9,13.56,13.56,0,0,0,2.16,5,7.41,7.41,0,0,0,3.34,2.55,12.39,12.39,0,0,0,4.32.73,11.66,11.66,0,0,0,4.9-.87,8.15,8.15,0,0,0,3-2.25,9.77,9.77,0,0,0,1.73-3.13c.39-1.17.74-2.33,1-3.48h.5Z" transform="translate(-24.34 -6.32)"/><path class="cls-1" d="M234.63,66.45h4L250.9,33.92H252l12.35,32.53h4.05v.64h-14v-.64h5.05l-4.77-12.63H244.13l-4.78,12.63h5.05v.64h-9.77ZM249.4,40l-5,13.22h10Z" transform="translate(-24.34 -6.32)"/><path class="cls-1" d="M271.71,66.45h5.05V35.38h-5.05v-.64h9.73L296.79,59.5h.09V35.38h-5v-.64h10.77v.64h-5V67.73h-.91L277.53,37.24h-.09V66.45h5v.64H271.71Z" transform="translate(-24.34 -6.32)"/><path class="cls-1" d="M306.42,66.45h5.05V35.38h-5.05v-.64h9.73L331.5,59.5h.09V35.38h-5v-.64h10.77v.64h-5V67.73h-.91L312.24,37.24h-.09V66.45h5v.64H306.42Z" transform="translate(-24.34 -6.32)"/><path class="cls-1" d="M338.06,66.45h4l12.26-32.53h1.09l12.36,32.53h4.05v.64h-14v-.64h5l-4.77-12.63H347.55l-4.77,12.63h5.05v.64h-9.77ZM352.82,40l-5,13.22h10Z" transform="translate(-24.34 -6.32)"/><path class="cls-1" d="M375.34,66.45h5V35.38h-5v-.64h8l1.39,0,1.43-.07,1.41,0,1.32,0a15.84,15.84,0,0,1,5.45.8,9.93,9.93,0,0,1,3.36,2,6.21,6.21,0,0,1,1.68,2.5,7.78,7.78,0,0,1,.45,2.43,6,6,0,0,1-.65,2.77,7.34,7.34,0,0,1-1.78,2.23,9.26,9.26,0,0,1-2.56,1.55,11.67,11.67,0,0,1-3.05.77v.09a14.13,14.13,0,0,1,3.34.7A11,11,0,0,1,398.17,52a8.1,8.1,0,0,1,2.25,2.52,6.78,6.78,0,0,1,.86,3.46,8.92,8.92,0,0,1-.77,3.75,7.87,7.87,0,0,1-2.32,2.93,11.66,11.66,0,0,1-3.9,1.93,19.34,19.34,0,0,1-5.5.7l-1.25,0-1.29-.07-1.41-.07-1.55,0h-8Zm9.59-17h4.18a8,8,0,0,0,2.32-.32A4.14,4.14,0,0,0,393.22,48a5.29,5.29,0,0,0,1.16-2.16,12.36,12.36,0,0,0,.41-3.46,9.73,9.73,0,0,0-.62-3.79,4.87,4.87,0,0,0-3.77-3.11,12.87,12.87,0,0,0-2.38-.23l-1.66,0a12.61,12.61,0,0,0-1.43.12Zm0,17,1.2.12c.44,0,1.07.07,1.89.07a14.43,14.43,0,0,0,3.66-.41,5.32,5.32,0,0,0,2.49-1.43,6.21,6.21,0,0,0,1.43-2.71,16.16,16.16,0,0,0,.46-4.22,9.46,9.46,0,0,0-1.55-5.73,5.35,5.35,0,0,0-4.58-2.09h-5Z" transform="translate(-24.34 -6.32)"/><path class="cls-1" d="M404.93,66.45h5V35.38h-5v-.64h14.63v.64h-5.05V66.45h5.05v.64H404.93Z" transform="translate(-24.34 -6.32)"/><path class="cls-1" d="M424.83,57.32h.5a18.07,18.07,0,0,0,1.3,4.14,12.22,12.22,0,0,0,1.74,2.77,8,8,0,0,0,2,1.68,8.67,8.67,0,0,0,2.12.86,10.25,10.25,0,0,0,2,.32c.65,0,1.27,0,1.84,0a9.35,9.35,0,0,0,3.95-.73,7,7,0,0,0,2.46-1.84,6.67,6.67,0,0,0,1.27-2.41,9,9,0,0,0,.36-2.39,5.75,5.75,0,0,0-.59-2.72,6.38,6.38,0,0,0-1.5-1.93,8.51,8.51,0,0,0-2-1.3,14,14,0,0,0-2-.77l-5.22-1.59a13.58,13.58,0,0,1-5.57-3,6.73,6.73,0,0,1-1.88-5,9.7,9.7,0,0,1,.73-3.79,8.77,8.77,0,0,1,2-3,9.58,9.58,0,0,1,3.16-2,11,11,0,0,1,4-.73,10.52,10.52,0,0,1,2.66.28,11.65,11.65,0,0,1,1.84.61l1.38.61a3.09,3.09,0,0,0,1.25.27,1.49,1.49,0,0,0,.8-.15,3.44,3.44,0,0,0,.57-.8h.63V43h-.54a13.77,13.77,0,0,0-.94-3.15,9.34,9.34,0,0,0-1.7-2.68,7.66,7.66,0,0,0-5.95-2.57,11.5,11.5,0,0,0-2.41.29,7.47,7.47,0,0,0-2.45,1,6,6,0,0,0-1.89,1.91,5.46,5.46,0,0,0-.75,3,4.92,4.92,0,0,0,.59,2.48A5.77,5.77,0,0,0,430.22,45a9.36,9.36,0,0,0,2.08,1.18q1.17.48,2.34.84l5.5,1.72,2.18.73a9.81,9.81,0,0,1,2.57,1.36A8.11,8.11,0,0,1,447,53.23a7.42,7.42,0,0,1,.88,3.82,10.61,10.61,0,0,1-.79,4.07,10.18,10.18,0,0,1-2.3,3.4,11.36,11.36,0,0,1-3.63,2.37,12.51,12.51,0,0,1-4.82.88l-1.68,0c-.48,0-.94,0-1.36-.11l-1.28-.21c-.42-.08-.89-.19-1.4-.34s-1.26-.39-2-.64a5.66,5.66,0,0,0-1.81-.36,1.27,1.27,0,0,0-.94.27,2.51,2.51,0,0,0-.43.73h-.68Z" transform="translate(-24.34 -6.32)"/></svg>